<svg width="360" height="320" viewBox="0 0 360 320" fill="none" xmlns="http://www.w3.org/2000/svg">
<rect opacity="0.01" x="-10" width="370" height="320" fill="white"/>
<path d="M54.6515 244.581C53.6144 244.265 52.4884 244.51 51.6747 245.228C50.8831 245.943 50.2207 246.79 49.7169 247.731C48.3087 250.036 47.0487 252.164 45.4614 254.349C44.6315 255.491 44.6505 256.115 45.0935 256.515C46.0522 257.371 47.0592 258.171 48.1096 258.911C49.3775 259.749 50.9236 257.151 52.5108 255.298C53.1336 254.571 54.4609 255.07 54.8701 255.756C55.0543 256.063 55.161 256.411 55.181 256.77C55.1739 257.665 54.8329 258.525 54.2252 259.181C53.3878 260.176 52.1418 261.109 52.7358 262.582C52.9441 263.063 53.286 263.473 53.7207 263.764C55.5961 265.082 57.5801 266.237 59.6511 267.217C60.3017 267.623 61.0846 267.758 61.8332 267.594C62.3663 267.344 62.8059 266.929 63.088 266.411C63.7976 265.511 64.1443 264.377 64.0594 263.234C63.7531 261.444 61.8379 260.518 60.4247 259.383C59.746 258.923 59.2738 258.214 59.1092 257.408C59.0806 256.963 59.1499 256.517 59.3121 256.102C59.7819 254.725 60.6323 253.492 61.0089 252.087C61.3856 250.681 61.1149 248.917 59.8477 248.208L54.6515 244.581Z" fill="black"/>
<path d="M78.5852 209.188C69.179 223.055 59.1904 236.761 55.729 241.883C54.6027 243.543 53.7263 245.449 55.4663 246.942C57.2118 248.429 58.7522 248.96 60.6693 247.398C66.8723 241.216 73.0607 234.477 80.1736 226.475" fill="white"/>
<path d="M58.392 248.651C57.2082 248.55 56.0986 248.031 55.2602 247.187C53.2913 245.497 54.3357 243.368 55.4655 241.703C56.8055 239.72 59.0975 236.488 61.999 232.397C66.4533 226.115 72.5535 217.512 78.3217 209.008L78.8494 209.368C73.0775 217.878 66.9747 226.484 62.5189 232.768C59.6195 236.856 57.3295 240.086 55.9935 242.062C54.5173 244.238 54.422 245.625 55.6742 246.7C57.5796 248.322 58.8797 248.445 60.4683 247.151C66.0054 241.63 71.8346 235.377 79.9358 226.262L80.4118 226.688C72.3015 235.812 66.4645 242.074 60.8945 247.626C60.2066 248.253 59.3204 248.616 58.392 248.651Z" fill="black"/>
<path d="M296.144 207.89C299.039 263.936 255.289 317.027 187.361 317.027C127.292 317.012 78.6035 268.154 78.6035 207.89C78.6035 147.626 127.292 98.7686 187.361 98.754C187.361 98.754 290.385 96.3757 296.144 207.89Z" fill="white"/>
<path fill-rule="evenodd" clip-rule="evenodd" d="M78.2578 207.888C78.2578 268.242 127.201 317.344 187.361 317.344C219.174 317.344 247.922 305.481 268.309 283.941C287.647 263.501 297.818 236.02 296.462 207.872C295.146 182.376 288.591 160.756 276.98 143.611C267.688 129.888 255.157 118.989 239.736 111.216C213.713 98.0995 188.043 98.4232 187.372 98.4317L187.361 98.4318C127.201 98.4318 78.2578 147.534 78.2578 207.888ZM187.368 99.0718C187.385 99.0712 187.516 99.069 187.754 99.069C191.073 99.069 215.116 99.5162 239.472 111.799C254.789 119.524 267.235 130.352 276.462 143.983C288 161.028 294.515 182.534 295.826 207.904C297.172 235.878 287.065 263.188 267.846 283.501C247.581 304.912 218.997 316.704 187.361 316.704C127.553 316.704 78.8957 267.889 78.8957 207.888C78.8957 147.887 127.553 99.0718 187.368 99.0718Z" fill="black"/>
<path d="M118.075 241.863C114.17 239.933 109.599 240.626 105.566 238.977C101.55 237.259 98.0803 234.468 95.5352 230.91C89.7634 223.044 89.3004 213.052 91.9055 203.948C92.5591 202.029 92.7697 199.987 92.5212 197.975C92.1211 195.526 90.9853 193.266 90.5767 190.817C89.6793 185.439 91.5291 180.12 93.6697 175.265C95.6232 170.711 98.0288 166.365 100.85 162.295C102.506 159.963 105.659 156.266 108.179 159.75C109.519 161.601 109.615 164.042 110.918 165.924C113.043 168.993 118.826 170.76 118.146 175.313C117.644 178.678 113.641 176.625 111.646 176.214C110.176 175.908 108.647 176.087 107.288 176.725C104.196 178.181 102.902 181.661 103.583 184.911C104.151 187.62 106.641 191.179 109.776 189.535C113.336 187.667 113.801 180.222 119.081 182.534C121.312 183.512 123.014 185.52 124.51 187.385C126.507 189.875 128.363 192.657 125.809 195.594C124.445 197.162 122.498 198.129 120.965 199.522C119.552 200.801 118.344 202.293 117.387 203.943C115.456 207.279 114.774 211.197 115.466 214.992C115.814 216.927 116.538 218.775 117.599 220.429C118.725 222.159 120.982 223.83 120.753 226.093C120.716 226.571 120.485 227.013 120.115 227.316C119.745 227.618 119.267 227.756 118.793 227.696C118.158 227.615 117.532 227.482 116.919 227.299C115.873 227.044 114.8 226.915 113.724 226.914C112.148 226.886 110.648 227.594 109.665 228.83C107.709 231.445 109.544 234.371 112.357 235.164C114.506 235.77 116.772 235.125 118.939 235.61C121.577 236.199 124.534 238.899 124.296 241.815C124.303 242.714 123.749 243.522 122.909 243.837C122.011 244.22 121.354 243.948 120.529 243.474C119.678 242.984 118.943 242.328 118.075 241.863C117.713 241.669 117.39 242.222 117.753 242.416C119.24 243.212 120.829 245.045 122.692 244.693C123.979 244.368 124.899 243.233 124.955 241.903C125.267 238.023 121.128 235.002 117.648 234.785C115.14 234.629 112.105 235.345 110.212 233.178C109.121 231.829 109.3 229.853 110.616 228.722C112.033 227.364 114.095 227.434 115.896 227.745C117.306 227.989 119.472 229.065 120.696 227.84C121.629 226.905 121.552 225.342 121.07 224.215C120.176 222.123 118.271 220.64 117.288 218.567C116.203 216.26 115.708 213.717 115.85 211.169C116.127 205.966 119.157 201.491 123.267 198.491C124.898 197.301 126.644 196.145 127.421 194.185C128.168 192.298 127.589 190.581 126.495 188.983C124.488 186.051 121.003 181.143 116.923 181.45C112.334 181.796 112.593 189.354 108.119 189.247C104.935 189.17 103.748 184.627 104.125 182.064C104.471 179.457 106.422 177.355 108.989 176.824C111.439 176.322 113.413 177.877 115.782 177.901C117.134 177.992 118.362 177.115 118.72 175.804C119.734 171.931 115.657 169.469 113.226 167.425C112.293 166.688 111.518 165.769 110.947 164.725C110.303 163.464 110.048 162.047 109.482 160.754C108.882 159.384 107.805 157.853 106.225 157.586C104.211 157.246 102.487 159.197 101.345 160.587C99.8695 162.476 98.5455 164.48 97.3853 166.579C94.6904 171.029 92.5141 175.776 90.8992 180.724C90.107 183.16 89.7031 185.706 89.7022 188.268C89.7476 190.87 90.5347 193.227 91.291 195.686C92.1443 198.411 92.1165 201.338 91.2115 204.047C90.5268 206.301 90.0548 208.614 89.8018 210.957C89.3162 215.771 89.9589 220.633 91.6784 225.153C94.6801 232.886 101.502 239.595 109.9 240.82C112.574 241.21 115.277 241.192 117.753 242.416C118.12 242.597 118.443 242.045 118.075 241.863V241.863Z" fill="black"/>
<path fill-rule="evenodd" clip-rule="evenodd" d="M184.144 303.577C186.086 304.52 189.54 304.982 193.918 304.982C209.744 304.982 237.631 298.947 249.693 287.831C250.652 287.018 251.443 286.024 252.023 284.907C252.66 283.749 252.466 282.31 251.546 281.364C249.074 278.669 248.941 276.98 249.577 274.213C249.814 273.322 250.143 272.459 250.558 271.636C250.852 271.026 251.114 270.401 251.345 269.764C252.344 266.842 251.688 263.431 249.588 260.638C247.697 257.952 244.603 256.379 241.326 256.438C239.234 256.548 236.809 257.667 236.43 259.866C236.122 261.646 237.263 263.075 238.368 264.457C239.228 265.532 240.117 266.646 240.307 267.906C240.425 268.845 240.157 269.793 239.563 270.529C238.882 271.432 237.872 272.027 236.754 272.182C234.597 272.304 232.559 271.179 231.508 269.286C231.215 268.756 230.956 268.209 230.731 267.647C230.031 265.715 228.752 264.048 227.07 262.874C226.389 262.318 225.748 261.715 225.151 261.07C224.176 259.859 223.354 258.53 222.706 257.115C222.071 255.752 221.291 254.462 220.378 253.269C219.042 251.68 217.077 250.762 215.006 250.759C213.822 250.765 212.714 251.347 212.036 252.32C210.685 254.284 211.605 256.552 212.496 258.745C213.058 259.954 213.447 261.237 213.65 262.555C213.791 264.079 213.299 265.651 212.822 267.17L212.821 267.172C212.209 269.126 211.576 271.147 212.265 273.119C212.755 274.522 213.814 275.566 214.839 276.576L214.839 276.576C215.435 277.135 215.988 277.737 216.494 278.379C217.3 279.493 217.545 280.918 217.16 282.239C216.967 282.846 216.47 283.306 215.852 283.451C214.904 283.665 214.016 283.122 213.076 282.547L213.075 282.546C212.47 282.136 211.812 281.81 211.12 281.576C210.077 281.354 208.998 281.363 207.959 281.604C207.169 281.768 206.36 281.82 205.556 281.757C204.334 281.582 203.248 280.882 202.58 279.841C201.424 278.046 201.04 275.859 201.514 273.776C202.103 271.706 202.981 269.73 204.121 267.907C204.815 266.719 205.445 265.495 206.008 264.239C208.453 258.491 207.777 251.885 204.218 246.756C200.582 241.734 193.942 239.099 188.075 240.346C187.352 240.5 186.633 240.708 185.937 240.91C184.689 241.333 183.392 241.595 182.077 241.69C180.929 241.682 179.785 241.548 178.666 241.292C177.28 240.953 175.849 240.834 174.427 240.941C171.094 241.361 167.115 244.537 165.946 252.19C165.568 254.662 164.911 257.238 162.896 257.59C161.845 257.771 160.784 257.229 159.727 256.685C155.621 254.574 151.268 252.985 146.77 251.956C144.072 251.339 139.243 250.801 137.211 254.14C135.418 257.085 137.279 260.762 139.417 263.016C140.024 263.655 140.686 264.271 141.326 264.867L141.326 264.867L141.327 264.868C142.956 266.385 144.641 267.952 145.47 269.99C145.894 271.173 146.17 272.405 146.291 273.657C146.401 274.579 146.568 275.494 146.791 276.396C148.558 282.953 155.394 286.351 162.518 289.047L162.55 289.059C167.059 290.764 172.178 292.7 177.362 292.559C179.489 292.449 181.604 292.182 183.692 291.762C187.913 291.021 191.901 290.32 195.521 292.077C197.166 292.876 198.216 294.124 198.332 295.414C198.412 296.276 198.097 297.128 197.474 297.729C196.298 298.941 193.928 299.695 191.711 299.552C191.106 299.514 190.402 299.43 189.657 299.341L189.644 299.339C187.183 299.044 184.398 298.711 183.101 299.789C182.667 300.151 182.408 300.682 182.387 301.247C182.317 302.192 182.908 302.976 184.144 303.577ZM183.508 300.282C184.281 299.813 185.184 299.605 186.083 299.69C187.253 299.719 188.421 299.814 189.581 299.976L189.581 299.976C190.335 300.067 191.048 300.153 191.671 300.191C193.695 300.322 196.411 299.743 197.932 298.175C198.681 297.439 199.061 296.404 198.967 295.356C198.832 293.841 197.647 292.399 195.799 291.501C191.993 289.654 187.716 290.405 183.581 291.132C181.525 291.546 179.441 291.809 177.346 291.919C172.268 292.051 167.222 290.142 162.767 288.457L162.743 288.448C155.777 285.813 149.098 282.508 147.407 276.228C147.191 275.352 147.029 274.464 146.923 273.568C146.794 272.264 146.504 270.981 146.06 269.749C145.178 267.58 143.441 265.963 141.762 264.4L141.76 264.398L141.751 264.39C141.121 263.803 140.47 263.197 139.88 262.574C137.74 260.319 136.254 256.94 137.755 254.474C139.647 251.365 144.59 252.114 146.628 252.579C151.086 253.601 155.4 255.177 159.469 257.272L159.478 257.276C160.542 257.823 161.746 258.443 163.005 258.22C165.418 257.799 166.165 254.984 166.576 252.287C167.274 247.719 169.77 242.174 174.506 241.576C175.863 241.477 177.226 241.593 178.547 241.921C179.712 242.184 180.902 242.321 182.096 242.33C183.464 242.232 184.814 241.961 186.115 241.525C186.8 241.326 187.507 241.121 188.207 240.972C193.837 239.777 200.21 242.309 203.702 247.132C207.131 252.078 207.781 258.447 205.421 263.988C204.867 265.222 204.248 266.425 203.565 267.592C202.393 269.468 201.493 271.501 200.893 273.631C200.381 275.89 200.801 278.262 202.056 280.207C202.826 281.398 204.073 282.196 205.475 282.392C206.338 282.462 207.208 282.409 208.057 282.236C209.005 282.012 209.99 281.996 210.944 282.191C211.58 282.411 212.185 282.714 212.743 283.092L212.743 283.092C213.75 283.709 214.79 284.346 215.991 284.076C216.825 283.891 217.497 283.276 217.759 282.461C218.222 280.936 217.943 279.282 217.005 277.995C216.48 277.327 215.905 276.7 215.285 276.12L215.284 276.119C214.267 275.116 213.307 274.169 212.867 272.908C212.248 271.136 212.823 269.303 213.431 267.362L213.431 267.362C213.926 265.782 214.438 264.148 214.285 262.496C214.079 261.114 213.675 259.77 213.086 258.504C212.221 256.374 211.405 254.364 212.56 252.684C213.131 251.882 214.051 251.404 215.033 251.399C216.905 251.409 218.678 252.241 219.886 253.676C220.769 254.834 221.524 256.085 222.138 257.406C222.809 258.87 223.661 260.243 224.673 261.494C225.289 262.162 225.952 262.786 226.655 263.361C228.262 264.47 229.483 266.056 230.145 267.897C230.379 268.485 230.65 269.057 230.958 269.609C232.127 271.732 234.416 272.983 236.827 272.818C238.117 272.641 239.283 271.958 240.07 270.918C240.77 270.044 241.083 268.921 240.937 267.81C240.722 266.379 239.779 265.199 238.866 264.056L238.866 264.056C237.803 262.727 236.8 261.471 237.058 259.974C237.364 258.205 239.453 257.177 241.359 257.077C244.425 257.031 247.314 258.508 249.079 261.023C251.051 263.646 251.672 266.836 250.742 269.556C250.518 270.172 250.264 270.777 249.98 271.367C249.546 272.23 249.203 273.136 248.955 274.069C248.296 276.941 248.443 278.925 251.076 281.797C251.818 282.556 251.968 283.716 251.443 284.639C250.898 285.679 250.158 286.603 249.262 287.36C234.008 301.417 193.274 307.304 184.422 303.001C183.445 302.526 182.974 301.952 183.024 301.292C183.033 300.901 183.209 300.533 183.508 300.282Z" fill="black"/>
<path fill-rule="evenodd" clip-rule="evenodd" d="M153.817 299.321C155.031 300.22 156.51 300.687 158.018 300.647H158.019C158.073 300.647 158.127 300.647 158.182 300.646C159.575 300.619 161.205 299.942 161.491 298.519C161.704 297.457 161.112 296.346 159.733 295.219C157.251 293.187 154.412 291.64 151.363 290.656C150.616 290.357 149.804 290.256 149.007 290.36C148.091 290.492 147.383 291.233 147.291 292.156C147.29 293.413 148.13 294.261 148.744 294.881L148.744 294.881C149.868 296.013 152.921 298.613 153.817 299.321ZM154.212 298.818C153.349 298.136 150.284 295.526 149.196 294.43C148.631 293.86 147.928 293.15 147.929 292.156C147.93 291.573 148.54 291.104 149.129 290.988C149.821 290.91 150.521 291.005 151.168 291.265C154.141 292.224 156.91 293.734 159.33 295.715C160.512 296.681 161.028 297.582 160.865 298.393C160.649 299.47 159.316 299.984 158.169 300.006C156.753 300.08 155.355 299.66 154.212 298.818Z" fill="black"/>
<path d="M258.031 210.188C260.21 208.038 264.238 208.655 267.015 208.797C270.124 208.88 273.196 209.493 276.1 210.607C279.079 211.834 282.486 213.92 283.872 216.963C284.717 218.819 284.502 220.666 282.909 222.018C281.861 222.908 280.756 223.563 280.08 224.81C278.746 227.268 279.027 231.273 275.855 232.277C272.864 233.224 269.607 231.215 266.509 231.743C263.199 232.307 260.563 234.518 257.47 235.65C255.509 236.368 253.346 236.439 251.844 234.765C250.547 233.214 250.126 231.107 250.726 229.173C251.397 227.187 252.581 225.415 254.157 224.037C255.193 223.035 256.351 222.078 257.069 220.802C259.018 217.342 255.479 213.339 258.03 210.188C258.287 209.871 257.838 209.416 257.579 209.736C256.633 210.818 256.219 212.27 256.452 213.691C256.734 215.97 257.744 218.296 256.518 220.479C255.589 222.134 253.925 223.243 252.677 224.633C251.381 225.988 250.456 227.657 249.992 229.477C249.408 232.146 250.488 235.411 253.179 236.48C256.659 237.863 260.401 234.813 263.391 233.442C265.446 232.428 267.765 232.085 270.024 232.461C271.826 232.765 273.742 233.388 275.581 233.004C278.745 232.344 279.18 229.188 280.039 226.587C280.327 225.57 280.857 224.639 281.584 223.874C282.226 223.235 283.048 222.807 283.698 222.175C284.708 221.23 285.189 219.847 284.986 218.477C284.546 215.189 281.534 212.834 278.876 211.274C275.528 209.431 271.803 208.385 267.989 208.216C264.822 207.986 260.089 207.259 257.579 209.736C257.286 210.025 257.737 210.477 258.031 210.188Z" fill="black"/>
<path fill-rule="evenodd" clip-rule="evenodd" d="M134.172 236.013C135.237 236.818 136.541 237.241 137.875 237.215C138.955 237.213 140.022 236.971 140.998 236.506C141.885 236.155 142.606 235.479 143.015 234.615C143.528 233.326 142.899 231.944 142.139 231.081C141.581 230.49 140.96 229.961 140.288 229.504L140.28 229.498C139.988 229.284 139.696 229.071 139.416 228.844C139.082 228.55 138.778 228.223 138.508 227.868C137.849 227.062 137.101 226.148 135.817 226.148C134.046 226.148 132.915 227.562 132.545 230.235C132.239 232.448 132.149 234.411 134.172 236.013ZM133.177 230.322C133.4 228.71 134.039 226.788 135.817 226.788V226.788C136.8 226.788 137.39 227.51 138.015 228.273C138.312 228.663 138.647 229.021 139.016 229.343C139.307 229.578 139.61 229.8 139.912 230.021C140.547 230.45 141.133 230.948 141.661 231.505C142.266 232.192 142.829 233.357 142.422 234.377C142.071 235.09 141.464 235.643 140.724 235.927C138.621 236.93 136.146 236.762 134.567 235.51C132.961 234.238 132.838 232.765 133.177 230.322Z" fill="black"/>
<path d="M73.6399 263.455C72.651 263.01 71.5032 263.11 70.6053 263.718C69.7298 264.327 68.9659 265.083 68.3472 265.953C66.6593 268.06 65.1408 270.011 63.2904 271.976C62.323 273.003 62.263 273.625 62.6519 274.079C63.4947 275.049 64.3926 275.971 65.3411 276.838C66.4931 277.83 68.3547 275.45 70.163 273.814C70.8727 273.171 72.1263 273.835 72.4456 274.567C72.5895 274.896 72.6514 275.255 72.6259 275.613C72.5058 276.5 72.059 277.31 71.3734 277.883C70.417 278.764 69.0633 279.53 69.4664 281.068C69.6124 281.571 69.8997 282.021 70.2942 282.365C71.9881 283.911 73.8102 285.309 75.7408 286.544C76.3348 287.03 77.0944 287.263 77.8577 287.195C78.4181 287.015 78.9065 286.659 79.2518 286.181C80.0692 285.379 80.5563 284.298 80.6166 283.153C80.5388 281.339 78.7558 280.177 77.4974 278.872C76.8823 278.329 76.5034 277.565 76.4418 276.746C76.4697 276.3 76.5947 275.867 76.8081 275.475C77.448 274.169 78.4472 273.055 78.9983 271.708C79.5494 270.362 79.5037 268.577 78.3362 267.713L73.6399 263.455Z" fill="black"/>
<path d="M168.777 117.376V117.382C168.771 118.137 168.758 118.886 168.752 119.641C167.214 135.014 166.628 152.307 161.058 172.902C160.312 175.667 159.476 178.496 158.532 181.382C155.713 190.266 151.417 198.608 145.825 206.054C140.804 212.806 128.167 224.979 122.189 230.259C103.944 246.387 91.5176 257.574 79.2502 267.02C77.1514 268.326 75.6905 267.603 74.1531 265.9C72.6093 264.198 73.7257 262.419 75.0463 260.915C81.1576 253.971 104.2 229.804 116.952 213.414C121.794 207.193 125.845 201.44 128.071 196.806C131.114 190.496 134.125 181.1 133.902 167.91C133.768 159.737 132.403 150.112 129.028 138.854C125.666 127.616 120.008 116.012 121.469 101.945C122.515 91.8781 128.02 80.9853 141.334 75.9165C141.349 75.9152 141.364 75.9108 141.378 75.9037C142.252 75.5709 143.165 75.2637 144.109 74.9821C147.661 73.818 151.319 73.0098 155.03 72.5693C158.672 72.0727 162.346 71.8481 166.022 71.8973C165.932 71.9997 165.843 72.1021 165.76 72.2045C164.995 73.1364 164.406 74.2016 164.025 75.3469C162.819 78.9245 164.089 83.9996 165.026 87.6476C165.964 91.302 167.253 94.9116 167.419 98.6812C167.572 102.054 166.238 105.67 166.187 109.043C166.143 112.147 166.392 114.924 168.675 117.267C168.707 117.305 168.739 117.337 168.777 117.376Z" fill="white"/>
<path d="M168.676 117.266C168.274 120.94 167.949 124.729 167.611 128.658C166.494 141.708 165.244 156.249 160.715 172.933C159.981 175.66 159.158 178.444 158.227 181.285C155.412 190.132 151.133 198.44 145.57 205.861C140.498 212.684 127.702 224.959 121.979 230.021L115.945 235.359C100.832 248.735 89.9106 258.405 79.0849 266.745C77.3433 267.826 76.0675 267.545 74.3898 265.689C73.2798 264.466 73.5476 263.103 75.2892 261.125C76.8586 259.34 79.5315 256.434 82.9189 252.754C92.8005 242.015 107.728 225.785 117.208 213.612C122.809 206.412 126.349 201.119 128.359 196.946C132.448 188.466 134.419 178.821 134.253 168.089C134.126 159.058 132.486 149.281 129.335 138.757C128.614 136.351 127.804 133.977 126.949 131.461C123.849 122.367 120.646 112.965 121.788 101.977C122.432 95.7559 125.909 80.7095 144.218 75.2823C149.57 73.3943 158.157 72.1975 164.919 72.1975C165.199 72.1975 165.48 72.1975 165.761 72.2039C165.844 72.1015 165.933 71.9991 166.022 71.8967L166.035 71.8839C165.85 71.8647 161.895 71.4871 155.031 72.5687C151.32 73.0092 147.661 73.8175 144.109 74.9815C143.165 75.2631 142.253 75.5703 141.379 75.9031C141.365 75.9103 141.35 75.9146 141.334 75.9159C139.007 76.6649 136.772 77.6784 134.674 78.9367C134.646 78.9492 134.62 78.9665 134.598 78.9879C124.066 85.9447 121.686 96.8247 121.157 101.913C119.995 113.036 123.223 122.508 126.349 131.673C127.198 134.175 128.008 136.543 128.729 138.943C131.816 149.26 133.443 158.86 133.609 167.743C133.819 178.514 131.88 188.185 127.785 196.665C125.794 200.799 122.273 206.053 116.704 213.215C107.243 225.369 92.322 241.586 82.4532 252.319C79.0594 255.999 76.3865 258.911 74.8108 260.703C73.4775 262.213 72.1762 264.197 73.9177 266.117C74.8044 267.097 75.857 267.999 77.2286 267.999C78.0225 267.972 78.7923 267.719 79.4486 267.27C90.3189 258.898 101.247 249.228 116.366 235.839L122.401 230.502C128.142 225.426 140.983 213.1 146.08 206.246C151.686 198.768 155.997 190.397 158.833 181.484C159.79 178.54 160.647 175.66 161.404 172.844C165.888 156.217 167.132 141.727 168.249 128.716C168.395 126.988 168.544 125.29 168.695 123.622C168.721 122.297 168.733 120.966 168.753 119.641C168.759 118.886 168.772 118.137 168.778 117.382V117.375C168.74 117.337 168.708 117.305 168.676 117.266Z" fill="black"/>
<path d="M168.779 117.375V117.381C168.772 118.137 168.759 118.885 168.753 119.641C168.734 120.965 168.721 122.297 168.696 123.621C168.472 137.989 167.879 152.165 165.57 166.412C165.174 168.85 164.453 171.679 162.176 172.62C161.928 172.723 161.669 172.799 161.404 172.844C161.29 172.869 161.175 172.889 161.06 172.901C160.945 172.914 160.83 172.927 160.715 172.933C160.023 172.962 159.329 172.93 158.642 172.837C151.766 172.088 144.94 170.925 138.203 169.356C136.843 169.082 135.519 168.657 134.254 168.089C134.139 168.031 134.018 167.973 133.903 167.909C133.807 167.852 133.705 167.801 133.609 167.743C133.169 167.479 132.759 167.167 132.385 166.815C130.605 165.119 129.98 162.565 129.45 160.165C125.839 143.801 123.53 128.991 121.24 112.396C121.24 112.396 117.202 89.5671 134.598 78.9879C134.621 78.9665 134.646 78.9492 134.675 78.9367C136.773 77.6784 139.007 76.6649 141.335 75.9159C141.35 75.9146 141.366 75.9103 141.379 75.9031C145.834 74.4293 150.399 73.3143 155.031 72.5687C161.895 71.4871 165.85 71.8647 166.035 71.8839L166.023 71.8967C165.933 71.9991 165.844 72.1015 165.761 72.2039C164.996 73.1359 164.408 74.201 164.026 75.3463C162.82 78.9239 164.09 83.9991 165.028 87.6471C165.965 91.3015 167.254 94.9111 167.42 98.6807C167.573 102.053 166.24 105.669 166.189 109.042C166.144 112.146 166.393 114.924 168.677 117.266C168.708 117.305 168.74 117.337 168.779 117.375Z" fill="black"/>
<path d="M275.186 147.262C274 149.509 271.544 154.059 263.442 152.568C260.5 152.099 257.739 150.844 255.449 148.933C254.85 149.24 254.222 149.484 253.573 149.662C252.862 149.866 252.098 149.642 251.608 149.086C250.932 148.254 251.532 147.083 252.151 146.206C251.73 145.854 251.43 145.586 251.36 145.515C248.795 143.07 246.543 140.491 247.934 136.824C249.108 133.746 254.492 129.701 254.747 126.987C254.945 124.946 252.323 121.951 250.766 120.408C247.494 117.451 245.459 116.427 241.21 114.706C240.781 114.575 240.344 114.47 239.902 114.392C240.024 114.143 240.113 113.874 240.209 113.618C241.121 111.16 243.028 108.862 245.605 108.261C245.797 108.215 245.983 108.149 246.16 108.062C250.045 111.621 253.407 115.659 257.267 119.397C257.758 119.928 259.04 121.151 259.327 121.464C265.139 127.864 266.651 128.645 271.104 133.694C275.582 138.763 276.583 144.619 275.186 147.262Z" fill="white"/>
<path fill-rule="evenodd" clip-rule="evenodd" d="M255.402 149.313C258.578 151.775 262.466 153.134 266.479 153.187C272.417 153.187 274.428 149.382 275.467 147.414C276.973 144.566 275.842 138.577 271.341 133.484C269.123 130.968 267.597 129.474 265.982 127.892L265.972 127.883C264.334 126.279 262.476 124.459 259.561 121.249C259.431 121.107 259.098 120.779 258.725 120.412L258.72 120.407C258.273 119.967 257.768 119.47 257.488 119.168C255.782 117.516 254.148 115.778 252.569 114.097L252.555 114.083L252.543 114.07C250.573 111.975 248.537 109.808 246.375 107.828L246.213 107.68L246.017 107.778C245.862 107.853 245.7 107.911 245.532 107.951C243.091 108.521 240.988 110.598 239.909 113.507L239.843 113.687C239.776 113.88 239.7 114.069 239.615 114.254L239.43 114.637L239.848 114.709C240.268 114.783 240.682 114.882 241.09 115.004C245.233 116.683 247.249 117.663 250.541 120.637C251.504 121.592 254.631 124.867 254.429 126.959C254.3 128.322 252.659 130.184 251.071 131.984L251.069 131.986C249.656 133.588 248.195 135.244 247.635 136.712C246.171 140.572 248.563 143.293 251.133 145.742C251.197 145.806 251.411 146 251.724 146.267C250.889 147.543 250.767 148.56 251.36 149.29C251.922 149.932 252.797 150.2 253.62 149.981C254.237 149.826 254.835 149.602 255.402 149.313ZM255.654 148.69L255.494 148.554L255.306 148.648C254.738 148.943 254.141 149.177 253.525 149.347C252.926 149.535 252.274 149.354 251.855 148.886C251.427 148.36 251.614 147.521 252.41 146.393L252.58 146.152L252.354 145.962C251.927 145.606 251.643 145.349 251.579 145.285C249.058 142.882 246.905 140.435 248.231 136.94C248.749 135.581 250.172 133.968 251.548 132.409L251.549 132.408L251.551 132.405C253.281 130.443 254.916 128.59 255.064 127.02C255.287 124.712 252.289 121.469 250.979 120.172C247.616 117.133 245.456 116.082 241.301 114.401C240.966 114.301 240.652 114.219 240.35 114.154C240.382 114.072 240.412 113.989 240.442 113.907L240.507 113.731C241.282 111.64 243.048 109.188 245.682 108.573C245.823 108.538 245.962 108.494 246.098 108.441C248.184 110.366 250.16 112.468 252.073 114.503L252.091 114.522L252.094 114.525C253.682 116.215 255.324 117.962 257.033 119.616C257.299 119.904 257.797 120.395 258.245 120.836L258.279 120.869C258.641 121.225 258.965 121.543 259.091 121.681C262.017 124.904 263.882 126.731 265.526 128.341L265.536 128.35C267.213 129.992 268.661 131.409 270.864 133.908C275.123 138.729 276.277 144.516 274.904 147.114L274.902 147.118C273.769 149.261 271.416 153.714 263.499 152.255C260.613 151.792 257.904 150.561 255.654 148.69Z" fill="black"/>
<path d="M259.844 149.478C259.689 149.477 259.557 149.365 259.53 149.212C259.305 147.551 260.353 145.984 261.971 145.562C262.082 145.537 262.198 145.574 262.275 145.658C262.352 145.742 262.379 145.861 262.345 145.97C262.311 146.079 262.221 146.162 262.11 146.187C260.818 146.523 259.98 147.776 260.16 149.104C260.175 149.197 260.149 149.292 260.088 149.364C260.028 149.436 259.938 149.478 259.844 149.478V149.478Z" fill="black"/>
<path d="M261.044 146.412C260.961 146.412 260.881 146.38 260.822 146.321C260.546 146.052 260.318 145.738 260.147 145.392C260.068 145.234 260.133 145.042 260.291 144.963C260.449 144.885 260.64 144.949 260.718 145.108C260.857 145.389 261.043 145.644 261.267 145.863C261.36 145.954 261.389 146.092 261.34 146.213C261.291 146.333 261.174 146.412 261.044 146.412V146.412Z" fill="black"/>
<path d="M260.02 147.426C259.993 147.426 259.966 147.422 259.94 147.416C259.616 147.333 259.307 147.2 259.025 147.021C258.928 146.96 258.871 146.852 258.875 146.737C258.88 146.623 258.945 146.52 259.046 146.466C259.147 146.413 259.268 146.418 259.365 146.48C259.591 146.623 259.839 146.729 260.099 146.796C260.254 146.836 260.356 146.986 260.336 147.146C260.316 147.306 260.18 147.426 260.02 147.426H260.02Z" fill="black"/>
<path d="M259.536 148.8L259.519 148.8L258.567 148.749C258.392 148.738 258.259 148.588 258.268 148.413C258.277 148.237 258.426 148.102 258.601 148.11L259.552 148.161C259.725 148.17 259.859 148.315 259.854 148.489C259.85 148.662 259.708 148.8 259.536 148.8V148.8Z" fill="black"/>
<path d="M249.401 143.432C249.291 143.432 249.188 143.374 249.13 143.28C249.072 143.186 249.066 143.069 249.115 142.969C249.836 141.555 251.278 140.659 252.861 140.641H252.894C253.07 140.641 253.213 140.785 253.212 140.962C253.211 141.139 253.068 141.281 252.892 141.281C252.881 141.279 252.871 141.279 252.861 141.281C251.519 141.296 250.297 142.056 249.687 143.254C249.633 143.363 249.522 143.431 249.401 143.432Z" fill="black"/>
<path d="M277.749 153.058C274.923 156.776 269.807 159.816 265.208 158.133C264.028 157.752 263.049 156.913 262.49 155.803C261.945 154.601 262.168 153.187 263.058 152.213C266.375 149.326 270.145 147.182 271.3 143.202C271.677 141.949 271.525 140.595 270.879 139.458C270.337 138.67 269.583 138.055 268.704 137.685C269.876 137.524 270.79 136.586 270.924 135.406C270.909 133.816 269.711 132.489 268.136 132.315C267.25 132.198 266.358 132.479 265.699 133.083C265.17 132.442 264.959 131.595 265.125 130.779C265.438 129.332 266.744 128.322 268.219 128.386C270.866 128.565 273.801 130.6 275.893 132.719C277.578 134.407 278.937 136.395 279.899 138.581C281.947 143.118 280.761 149.096 277.749 153.058Z" fill="black"/>
<path fill-rule="evenodd" clip-rule="evenodd" d="M282.126 145.961C282.182 145.964 282.237 145.965 282.293 145.965C283.262 145.992 284.188 145.562 284.797 144.805C285.498 143.828 285.697 142.37 285.389 140.47C285.295 139.27 284.722 138.159 283.801 137.388C283.039 136.832 282.09 136.597 281.158 136.733C280.323 136.782 279.543 137.168 278.995 137.802L278.908 137.916L280.228 144.905L280.266 145.007C280.685 145.621 281.385 145.98 282.126 145.961ZM282.156 145.322C281.651 145.337 281.166 145.118 280.843 144.727L279.59 138.085C280.033 137.66 280.613 137.406 281.226 137.369C281.984 137.254 282.758 137.434 283.387 137.874C284.195 138.546 284.692 139.522 284.76 140.572C285.035 142.275 284.869 143.609 284.28 144.43C283.754 145.05 282.965 145.382 282.156 145.322Z" fill="black"/>
<path d="M285.025 139.867C289.679 140.14 294.894 143.206 298.441 147.063C306.282 155.589 311.052 170.103 311.384 183.16C311.477 186.823 311.301 190.558 310.084 194.013C308.867 197.468 306.485 200.643 303.144 202.125C299.314 203.824 289.314 203.53 284.772 197.429C281.021 192.392 280.344 185.656 282.025 179.6C283.707 173.543 286.924 168.01 288.694 161.979C290.465 155.948 289.689 148.809 285.13 143.514L285.025 139.867Z" fill="black"/>
<path d="M268.461 138.019C268.135 138.02 267.812 137.949 267.517 137.81C267.357 137.735 267.289 137.544 267.364 137.384C267.439 137.224 267.629 137.156 267.788 137.231C268.347 137.468 268.987 137.41 269.495 137.075C270.117 136.726 270.531 136.094 270.603 135.382C270.58 133.962 269.508 132.781 268.101 132.626C267.31 132.517 266.512 132.767 265.922 133.308C265.362 133.845 265.158 134.657 265.397 135.397C265.437 135.504 265.417 135.624 265.345 135.712C265.273 135.801 265.159 135.843 265.047 135.825C264.934 135.806 264.84 135.729 264.8 135.622C264.467 134.644 264.731 133.561 265.478 132.849C266.204 132.174 267.193 131.859 268.174 131.99C269.922 132.176 271.247 133.658 271.24 135.422C271.153 136.345 270.623 137.167 269.82 137.626C269.411 137.877 268.941 138.013 268.461 138.019Z" fill="black"/>
<path d="M268.73 136.117C268.603 136.117 268.488 136.041 268.437 135.924C268.387 135.807 268.41 135.671 268.497 135.578C268.688 135.298 268.675 134.926 268.464 134.661C268.226 134.341 267.845 134.161 267.448 134.181C267.363 134.188 267.279 134.16 267.215 134.104C267.151 134.047 267.112 133.968 267.108 133.882C267.103 133.798 267.131 133.714 267.186 133.65C267.242 133.586 267.321 133.547 267.405 133.542C268.023 133.508 268.615 133.789 268.982 134.288C269.375 134.799 269.367 135.514 268.962 136.016C268.902 136.081 268.818 136.117 268.73 136.117V136.117Z" fill="black"/>
<path d="M204.839 136.446C201.091 144.19 197.531 152.465 195.192 160.747C194.35 163.728 193.695 166.876 194.338 169.906C195.051 173.265 197.265 176.074 199.413 178.747C206.684 187.799 215.367 199.621 222.863 209.114C224.568 211.279 226.733 213.034 229.2 214.252C230.39 214.838 231.583 215.404 232.572 216.005C233.751 216.686 234.853 217.494 235.859 218.414C236.111 218.652 236.673 219.191 236.345 219.577C236.114 219.849 234.818 219.286 234.491 219.146C233.286 218.611 232.115 218 230.987 217.317C230.842 217.233 230.657 217.268 230.552 217.399C230.447 217.53 230.453 217.718 230.566 217.843C232.679 220.157 237.514 224.377 239.915 226.903C240.169 227.183 240.392 227.49 240.581 227.819C240.669 227.97 240.674 228.157 240.594 228.313C240.515 228.469 240.361 228.573 240.187 228.59C239.936 228.63 239.608 228.473 239.139 228.07C237.506 226.666 236.054 225.501 234.428 224.088C234.297 223.974 233.579 223.432 233.248 223.559C232.986 223.659 232.831 223.889 233.027 224.105C234.779 225.846 236.66 227.201 238.355 228.998C238.882 229.494 239.365 230.034 239.8 230.613C239.965 230.864 239.927 231.198 239.71 231.406C239.293 231.818 238.74 231.445 238.496 231.215C236.938 229.745 235.404 228.263 233.846 226.794C233.16 226.146 232.05 225.083 231.664 225.335C231.451 225.533 231.61 225.788 231.811 226.055C233.711 228.181 235.468 229.78 237.373 231.902C237.79 232.366 238.051 232.937 237.667 233.215C237.337 233.493 236.372 232.767 235.309 231.701C233.938 230.326 232.972 229.255 231.427 227.899C230.982 227.509 230.071 226.756 229.779 227.111C229.779 227.111 229.195 227.155 233.901 231.922C234.736 232.767 234.73 233.318 234.535 233.509C234.138 233.844 233.163 233.136 232.605 232.622L228.796 228.841C227.175 227.222 225.677 225.484 224.312 223.643C222.506 221.415 220.338 218.332 220.047 214.248C220.003 213.623 219.744 213.033 219.315 212.577C210.473 203.164 200.581 192.259 191.796 182.926C188.683 179.62 185.478 176.161 184.078 171.835C182.741 167.701 183.201 163.219 183.83 158.919C185.211 149.483 187.333 140.171 190.176 131.07" fill="white"/>
<path d="M234.274 233.909C233.611 233.909 232.776 233.216 232.389 232.859L228.571 229.071C227.276 227.819 226.082 226.465 225.002 225.022C224.694 224.633 224.383 224.24 224.064 223.847C222.084 221.402 220.02 218.354 219.729 214.273C219.689 213.722 219.461 213.201 219.082 212.799C214.783 208.221 210.16 203.209 205.688 198.361C200.963 193.239 196.077 187.942 191.564 183.148C188.592 179.991 185.223 176.412 183.775 171.935C182.396 167.671 182.917 162.957 183.514 158.874C184.9 149.422 187.026 140.094 189.872 130.977L190.481 131.168C187.644 140.253 185.526 149.548 184.146 158.967C183.532 163.163 183.045 167.605 184.382 171.738C185.785 176.077 189.102 179.601 192.028 182.709C196.543 187.505 201.43 192.803 206.156 197.927C210.627 202.773 215.249 207.784 219.547 212.36C220.025 212.87 220.315 213.529 220.366 214.227C220.644 218.131 222.642 221.076 224.559 223.443C224.88 223.838 225.192 224.233 225.502 224.625C226.564 226.044 227.738 227.376 229.011 228.608L232.829 232.396C233.61 233.115 234.23 233.348 234.33 233.266C234.344 233.239 234.369 232.853 233.674 232.149C229.228 227.644 229.373 227.253 229.46 227.019L229.532 226.828L229.635 226.812C229.724 226.748 229.828 226.71 229.937 226.703C230.313 226.681 230.846 226.966 231.637 227.661C232.787 228.669 233.631 229.534 234.526 230.451C234.846 230.779 235.176 231.118 235.534 231.477C237.05 232.997 237.494 232.955 237.492 232.956C237.517 232.934 237.532 232.903 237.534 232.869C237.493 232.58 237.353 232.314 237.136 232.118C236.199 231.074 235.281 230.141 234.393 229.237C233.482 228.31 232.539 227.351 231.574 226.271C231.391 226.03 231.004 225.514 231.446 225.103C232.037 224.716 232.881 225.444 234.014 226.514L234.065 226.563C234.858 227.309 235.646 228.059 236.429 228.811C237.189 229.536 237.951 230.261 238.714 230.984C238.797 231.061 239.225 231.439 239.486 231.18C239.6 231.077 239.617 230.905 239.527 230.781C239.222 230.355 238.876 229.96 238.494 229.601C238.361 229.466 238.234 229.338 238.123 229.22C237.209 228.281 236.248 227.39 235.244 226.55C234.437 225.851 233.602 225.129 232.802 224.334C232.654 224.188 232.591 223.976 232.636 223.772C232.707 223.529 232.894 223.338 233.135 223.262C233.7 223.045 234.599 223.816 234.636 223.848C235.51 224.607 236.333 225.294 237.16 225.984C237.874 226.58 238.591 227.179 239.347 227.829C239.835 228.248 240.054 228.291 240.137 228.276C240.213 228.264 240.28 228.22 240.32 228.154C240.329 228.137 240.357 228.082 240.297 227.967C240.123 227.666 239.917 227.384 239.684 227.126C238.547 225.929 236.829 224.321 235.168 222.766C233.338 221.054 231.446 219.283 230.33 218.061C230.111 217.82 230.1 217.455 230.303 217.201C230.506 216.947 230.864 216.879 231.146 217.041L231.406 217.191C232.44 217.813 233.512 218.368 234.616 218.854C235.087 219.099 235.596 219.261 236.121 219.334C236.141 219.249 236.075 219.061 235.64 218.648C234.651 217.744 233.567 216.95 232.407 216.28C231.568 215.771 230.591 215.292 229.557 214.785L229.06 214.541C226.552 213.299 224.35 211.514 222.614 209.315C219.188 204.978 215.455 200.075 211.845 195.334C207.552 189.695 203.113 183.865 199.165 178.95C197.105 176.386 194.77 173.479 194.026 169.975C193.357 166.817 194.085 163.495 194.885 160.662C196.911 153.49 199.982 145.752 204.551 136.308L205.126 136.587C200.573 145.996 197.514 153.702 195.5 160.836C194.68 163.733 194.011 166.829 194.65 169.842C195.362 173.197 197.646 176.04 199.662 178.548C203.615 183.47 208.056 189.303 212.352 194.945C215.961 199.684 219.692 204.584 223.113 208.917C224.791 211.042 226.918 212.766 229.34 213.966L229.837 214.21C230.885 214.723 231.874 215.208 232.738 215.732C233.936 216.426 235.056 217.248 236.077 218.183C236.334 218.426 237.115 219.165 236.588 219.787C236.31 220.111 235.713 220.019 234.386 219.451C233.252 218.953 232.151 218.383 231.089 217.746L230.828 217.596C231.9 218.831 233.782 220.594 235.603 222.298C237.271 223.86 238.996 225.474 240.145 226.684C240.421 226.986 240.662 227.318 240.864 227.674C240.998 227.911 241.007 228.199 240.889 228.444C240.756 228.693 240.515 228.865 240.237 228.908C239.878 228.961 239.476 228.782 238.932 228.315C238.178 227.667 237.463 227.07 236.752 226.477C235.922 225.783 235.096 225.094 234.219 224.332C233.972 224.108 233.676 223.946 233.354 223.862C233.314 223.875 233.28 223.899 233.253 223.931C234.035 224.659 234.861 225.374 235.661 226.065C236.681 226.919 237.658 227.826 238.587 228.78C238.694 228.894 238.818 229.02 238.947 229.151C239.366 229.544 239.743 229.979 240.073 230.449C240.315 230.827 240.257 231.325 239.934 231.636C239.69 231.834 239.378 231.926 239.067 231.891C238.756 231.856 238.471 231.697 238.278 231.451C237.511 230.727 236.748 230.001 235.99 229.274C235.205 228.524 234.417 227.776 233.628 227.029L233.577 226.981C233.079 226.467 232.521 226.017 231.913 225.641C231.96 225.718 232.011 225.793 232.066 225.865C233.004 226.913 233.941 227.866 234.848 228.788C235.74 229.696 236.663 230.635 237.61 231.689C237.95 232.017 238.15 232.464 238.169 232.937C238.147 233.154 238.032 233.351 237.854 233.477C237.551 233.73 236.946 233.798 235.083 231.929C234.723 231.568 234.392 231.228 234.07 230.899C233.184 229.991 232.348 229.134 231.217 228.142C230.922 227.866 230.597 227.626 230.246 227.426C231.436 228.943 232.733 230.37 234.127 231.699C234.594 232.074 234.894 232.618 234.962 233.214C234.977 233.402 234.91 233.587 234.778 233.721C234.646 233.855 234.462 233.923 234.274 233.909L234.274 233.909Z" fill="black"/>
<path d="M174.013 68.4087C182.069 67.6938 192.646 71.4648 199.754 74.3118C226.598 85.0647 241.34 98.7516 246.124 104.328C246.695 104.916 247.072 105.667 247.203 106.478C247.265 107.273 246.69 107.993 245.607 108.26C243.03 108.856 241.12 111.158 240.21 113.614C240.082 114.119 239.835 114.586 239.49 114.975C238.976 115.339 238.356 115.521 237.728 115.491C232.05 115.842 228.834 116.181 223.971 119.044C221.764 120.344 219.177 122.993 216.976 124.303C213.861 126.156 211.541 126.9 207.348 127.252C204.196 127.318 201.048 127.018 197.966 126.358C189.117 124.364 183.735 123.386 176.04 121.19C174.144 120.649 170.812 119.16 169.315 117.874C166.439 115.402 166.14 112.414 166.191 109.04C166.242 105.667 167.573 102.049 167.421 98.6788C167.252 94.9106 165.966 91.2988 165.027 87.6463C164.087 83.9939 162.82 78.9181 164.028 75.3458C165.235 71.7735 168.199 68.9248 174.013 68.4087Z" fill="white"/>
<path fill-rule="evenodd" clip-rule="evenodd" d="M197.896 126.672C200.715 127.276 203.59 127.582 206.472 127.583C206.776 127.583 207.078 127.579 207.375 127.571C211.548 127.221 213.921 126.494 217.139 124.579C218.369 123.784 219.542 122.902 220.648 121.94C221.744 120.983 222.909 120.108 224.133 119.321C228.972 116.472 232.13 116.158 237.748 115.812C239.012 115.996 240.198 115.156 240.447 113.899L240.509 113.726C241.285 111.634 243.051 109.181 245.683 108.572C246.878 108.277 247.599 107.446 247.522 106.454C247.394 105.572 246.989 104.754 246.366 104.12C243.86 101.199 229.843 86.0203 199.872 74.0153C192.658 71.1259 182.128 67.3672 173.986 68.0906C167.304 68.6837 164.718 72.3081 163.726 75.2437C162.466 78.9708 163.821 84.2399 164.718 87.7268L164.718 87.7272C164.94 88.5906 165.182 89.4522 165.424 90.3137L165.424 90.3168C166.187 93.0383 166.975 95.8523 167.103 98.6937C167.105 100.545 166.901 102.391 166.496 104.197C166.157 105.79 165.948 107.409 165.873 109.036C165.825 112.183 166.036 115.477 169.108 118.117C170.71 119.494 174.172 120.991 175.953 121.499C181.594 123.108 185.928 124.051 191.416 125.244C193.401 125.675 195.524 126.137 197.896 126.672ZM164.33 75.4494C165.685 71.4412 168.952 69.18 174.042 68.7281L174.042 68.7281C182.048 68.0156 192.483 71.7446 199.636 74.6096C229.469 86.5593 243.394 101.636 245.883 104.537C246.414 105.071 246.765 105.759 246.886 106.504C246.938 107.177 246.419 107.731 245.536 107.949C242.66 108.614 240.745 111.254 239.911 113.503L239.847 113.682C239.769 114.169 239.498 114.603 239.095 114.884C238.691 115.165 238.191 115.27 237.71 115.173C232.151 115.516 228.765 115.852 223.81 118.769C222.557 119.572 221.365 120.467 220.242 121.446C219.161 122.386 218.016 123.25 216.814 124.028C213.691 125.887 211.385 126.592 207.34 126.932C204.215 127.001 201.093 126.704 198.036 126.047C195.662 125.512 193.537 125.05 191.551 124.618L191.545 124.617C186.072 123.427 181.747 122.487 176.128 120.883C174.13 120.313 170.926 118.837 169.523 117.631C166.658 115.17 166.463 112.166 166.511 109.046C166.586 107.454 166.791 105.872 167.124 104.314C167.539 102.46 167.746 100.565 167.741 98.665C167.609 95.7487 166.81 92.8978 166.038 90.1406L166.037 90.14C165.797 89.283 165.557 88.426 165.336 87.5672C164.458 84.154 163.132 78.9956 164.33 75.4494Z" fill="black"/>
<path fill-rule="evenodd" clip-rule="evenodd" d="M180.707 80.7751C180.707 82.1654 181.83 83.2924 183.216 83.2925C184.601 83.2909 185.724 82.1647 185.725 80.775C185.725 79.3847 184.602 78.2578 183.216 78.2578C181.83 78.2578 180.707 79.3849 180.707 80.7751ZM181.487 80.0569C181.777 79.3553 182.459 78.8979 183.216 78.8978C184.249 78.899 185.086 79.7387 185.088 80.775C185.088 81.5343 184.632 82.2189 183.932 82.5095C183.233 82.8002 182.428 82.6396 181.893 82.1028C181.358 81.5659 181.198 80.7584 181.487 80.0569Z" fill="black"/>
<path fill-rule="evenodd" clip-rule="evenodd" d="M194.758 94.9186C195.146 95.8593 196.061 96.4724 197.076 96.4723C198.461 96.4703 199.583 95.3442 199.585 93.9548C199.585 92.9366 198.973 92.0187 198.036 91.6291C197.098 91.2395 196.019 91.455 195.301 92.1751C194.584 92.8952 194.369 93.978 194.758 94.9186ZM195.347 93.2362C195.637 92.5347 196.319 92.0774 197.076 92.0776C198.109 92.0791 198.946 92.9187 198.947 93.9548C198.947 94.7141 198.491 95.3988 197.792 95.6894C197.092 95.98 196.288 95.8193 195.752 95.2823C195.217 94.7453 195.057 93.9377 195.347 93.2362Z" fill="black"/>
<path d="M216.595 84.4113C215.695 84.41 214.865 83.9257 214.42 83.1418C213.974 82.358 213.98 81.3948 214.437 80.6172L214.986 80.9416C214.47 81.8346 214.769 82.9786 215.656 83.5025C216.542 84.0263 217.685 83.7334 218.212 82.8468L218.762 83.1718C218.309 83.9411 217.485 84.4126 216.595 84.4113V84.4113Z" fill="black"/>
<path fill-rule="evenodd" clip-rule="evenodd" d="M174.135 101.775C174.135 103.166 175.258 104.293 176.644 104.293C178.029 104.291 179.152 103.165 179.153 101.775C179.153 100.385 178.03 99.2577 176.644 99.2578C175.258 99.2579 174.135 100.385 174.135 101.775ZM174.915 101.057C175.205 100.355 175.887 99.8977 176.644 99.8978C177.677 99.8991 178.514 100.739 178.515 101.775C178.515 102.534 178.059 103.219 177.36 103.51C176.661 103.8 175.856 103.64 175.321 103.103C174.786 102.566 174.625 101.758 174.915 101.057Z" fill="black"/>
<path fill-rule="evenodd" clip-rule="evenodd" d="M232.963 102.739C233.351 103.68 234.266 104.293 235.281 104.293C236.666 104.291 237.788 103.165 237.79 101.775C237.79 100.757 237.178 99.839 236.241 99.4494C235.303 99.0599 234.224 99.2754 233.506 99.9954C232.789 100.715 232.574 101.798 232.963 102.739ZM233.552 101.057C233.842 100.355 234.524 99.8977 235.281 99.8979C236.314 99.8994 237.151 100.739 237.152 101.775C237.152 102.534 236.696 103.219 235.997 103.51C235.298 103.8 234.493 103.64 233.957 103.103C233.422 102.566 233.262 101.758 233.552 101.057Z" fill="black"/>
<path d="M197.699 102.922C193.845 109.896 190.55 117.167 187.845 124.666C187.378 125.96 186.931 127.408 187.466 128.676C187.966 129.863 189.187 130.551 190.337 131.123C193.826 132.858 197.436 134.337 201.138 135.547C203.587 136.348 206.302 137.021 208.68 136.03C210.946 135.085 212.37 132.852 213.598 130.721C217.41 124.099 220.732 117.206 223.537 110.095" fill="white"/>
<path d="M197.424 102.759C194.575 107.929 192.026 113.259 189.789 118.724C188.779 121.197 187.327 123.968 186.968 126.637C186.671 128.839 187.914 130.196 189.744 131.177C192.159 132.435 194.65 133.54 197.202 134.486C199.673 135.436 202.286 136.498 204.936 136.779C210.45 137.364 212.891 132.706 215.207 128.518C218.473 122.596 221.358 116.47 223.845 110.179C223.997 109.796 223.38 109.63 223.23 110.009C221.279 114.938 219.083 119.766 216.648 124.474C215.51 126.671 214.333 128.855 213.075 130.986C211.829 133.094 210.31 135.304 207.819 135.977C205.258 136.67 202.53 135.694 200.116 134.867C197.564 133.992 195.057 132.987 192.606 131.856C191.591 131.42 190.599 130.93 189.635 130.389C187.908 129.356 187.276 127.979 187.755 125.999C188.433 123.664 189.281 121.381 190.292 119.171C192.537 113.662 195.102 108.29 197.975 103.082C198.174 102.722 197.623 102.398 197.424 102.759L197.424 102.759Z" fill="black"/>
<path d="M211.222 134.146C210.466 133.661 210.026 132.808 210.067 131.909C210.109 131.01 210.625 130.201 211.422 129.788C212.22 129.375 213.176 129.421 213.931 129.908L213.587 130.447C213.024 130.084 212.311 130.051 211.717 130.359C211.123 130.667 210.738 131.269 210.707 131.939C210.676 132.609 211.003 133.245 211.566 133.607L211.222 134.146Z" fill="black"/>
<path fill-rule="evenodd" clip-rule="evenodd" d="M194.758 122.903C195.146 123.844 196.061 124.457 197.076 124.457C198.461 124.455 199.583 123.329 199.585 121.939C199.585 120.921 198.973 120.003 198.036 119.613C197.098 119.224 196.019 119.439 195.301 120.159C194.584 120.88 194.369 121.962 194.758 122.903ZM195.347 121.221C195.637 120.519 196.319 120.062 197.076 120.062C198.109 120.063 198.946 120.903 198.947 121.939C198.947 122.699 198.491 123.383 197.792 123.674C197.092 123.964 196.288 123.804 195.752 123.267C195.217 122.73 195.057 121.922 195.347 121.221Z" fill="black"/>
<path fill-rule="evenodd" clip-rule="evenodd" d="M214.943 110.197C214.943 111.587 216.067 112.714 217.452 112.714C218.838 112.713 219.96 111.587 219.962 110.197C219.962 108.807 218.838 107.68 217.453 107.68C216.067 107.68 214.943 108.807 214.943 110.197ZM215.581 110.197C215.581 109.16 216.419 108.32 217.452 108.32V108.32C218.485 108.321 219.322 109.161 219.324 110.197C219.324 111.234 218.486 112.074 217.453 112.074C216.419 112.074 215.581 111.234 215.581 110.197Z" fill="black"/>
<path d="M265.519 24.2427C264.488 22.8334 263.085 21.7408 261.469 21.0879C261.316 21.0019 261.123 21.0527 261.032 21.2027C260.137 23.0326 259.223 24.8502 258.97 26.8964H259.608C259.546 24.8373 259.235 22.8097 259.535 20.7533C259.577 20.5836 259.479 20.411 259.313 20.3597C257.393 19.8794 255.553 19.1219 253.85 18.111L253.689 18.7073C255.806 18.5615 257.974 18.6852 260.023 18.0445C260.19 17.9931 260.287 17.8205 260.246 17.6508C259.955 15.4408 259.826 13.2124 259.86 10.9835L259.233 11.0685C259.86 12.9573 260.544 14.824 261.287 16.6685C261.316 16.7629 261.385 16.8393 261.476 16.8765C261.567 16.9136 261.67 16.9075 261.756 16.8598C263.785 15.7957 265.374 13.9552 267.21 12.6093L266.774 12.1715C265.641 14.3444 264.396 16.4571 263.045 18.5012C262.655 19.1394 262.365 19.3949 262.585 20.1317C263.052 21.6923 264.199 23.1459 264.968 24.5658C265.164 24.9278 265.715 24.6051 265.519 24.2427C265.127 23.5185 264.713 22.8078 264.305 22.0923C263.982 21.5264 263.26 20.6215 263.2 19.9616C263.137 19.2703 263.673 18.6994 264.057 18.0746C265.243 16.2731 266.333 14.4105 267.325 12.4945C267.448 12.2374 267.171 11.8494 266.888 12.0567C265.051 13.4033 263.46 15.2443 261.434 16.3072L261.902 16.4984C261.161 14.6518 260.477 12.7851 259.848 10.8984C259.802 10.7483 259.654 10.6537 259.499 10.6748C259.344 10.6959 259.226 10.8264 259.222 10.9835C259.191 13.2696 259.328 15.555 259.631 17.821L259.854 17.4273C257.861 18.0503 255.748 17.9255 253.689 18.0673C253.547 18.0717 253.425 18.1684 253.388 18.3056C253.351 18.4428 253.408 18.5882 253.528 18.6636C255.278 19.7035 257.17 20.4827 259.143 20.9769L258.92 20.5832C258.611 22.7005 258.906 24.7741 258.97 26.8964C258.977 27.0685 259.118 27.2048 259.289 27.2048C259.461 27.2048 259.602 27.0685 259.608 26.8964C259.845 24.974 260.743 23.2428 261.583 21.5258L261.147 21.6406C262.666 22.2415 263.989 23.2542 264.968 24.5658C265.192 24.909 265.745 24.5887 265.519 24.2427Z" fill="black"/>
<path d="M345.935 156.116C344.904 154.706 343.501 153.614 341.884 152.961C341.732 152.875 341.539 152.925 341.448 153.076C340.327 155.438 339.235 158.098 338.95 160.715H339.588C339.477 158.013 339.599 155.307 339.951 152.626C339.994 152.456 339.896 152.283 339.728 152.233C337.877 151.725 335.934 151.672 334.266 150.631L334.105 151.227C335.863 151.043 338.168 151.095 339.704 150.112C339.803 150.055 339.863 149.95 339.862 149.836C339.646 147.477 339.782 145.068 339.751 142.702L339.124 142.787C339.899 145.042 341.003 147.163 341.913 149.362C341.967 149.527 342.137 149.624 342.306 149.585C343.648 149.392 344.895 148.777 346.232 148.526L345.922 147.991C345.272 148.573 344.658 149.198 344.041 149.814C343.717 150.138 342.929 150.668 342.799 151.133C342.668 151.599 343.174 152.392 343.369 152.782C343.99 154.027 344.724 155.215 345.384 156.439C345.579 156.801 346.13 156.478 345.935 156.116C345.411 155.145 344.851 154.196 344.325 153.226C344.061 152.74 343.369 151.672 343.475 151.294C343.59 150.889 344.58 150.178 344.882 149.878C345.372 149.393 345.859 148.903 346.373 148.444C346.63 148.213 346.351 147.855 346.063 147.909C344.726 148.16 343.479 148.775 342.136 148.968L342.528 149.192C341.618 146.993 340.514 144.87 339.739 142.617C339.693 142.467 339.545 142.372 339.39 142.394C339.235 142.415 339.118 142.545 339.113 142.702C339.14 144.781 339.103 146.864 339.175 148.942C339.18 149.089 339.266 149.566 339.191 149.682C339.011 149.958 337.958 150.07 337.655 150.13C336.485 150.361 335.29 150.463 334.105 150.587C333.963 150.591 333.841 150.688 333.804 150.825C333.767 150.962 333.824 151.108 333.944 151.183C335.664 152.257 337.646 152.325 339.559 152.85L339.336 152.456C338.971 155.193 338.841 157.956 338.95 160.715C338.956 160.887 339.097 161.023 339.269 161.023C339.441 161.023 339.582 160.887 339.588 160.715C339.859 158.227 340.935 155.641 341.999 153.399L341.562 153.513C343.082 154.114 344.405 155.127 345.384 156.439C345.608 156.782 346.161 156.462 345.935 156.116Z" fill="black"/>
<path d="M37.0346 108.252C36.0035 106.843 34.6007 105.751 32.9842 105.098C32.8316 105.012 32.6388 105.063 32.5478 105.212C31.712 106.852 30.6995 108.303 30.4593 110.166H31.0972C31.0425 108.343 30.775 106.584 31.051 104.763C31.0925 104.593 30.9948 104.421 30.8282 104.369C29.1035 103.931 27.4542 103.234 25.9359 102.303L25.7749 102.9C27.5231 102.778 29.2055 102.784 30.8904 102.244C31.0566 102.192 31.1541 102.02 31.1132 101.85C30.8495 99.5935 30.934 97.3093 31.3637 95.0783H30.7485C31.3542 97.0589 31.5896 99.1323 32.3184 101.077C32.3683 101.245 32.5414 101.343 32.7107 101.3C34.2192 100.886 35.6955 100.362 37.1277 99.731L36.6913 99.2931C36.1473 100.289 35.4883 101.217 34.7279 102.058C34.4758 102.356 33.7252 102.929 33.6196 103.34C33.483 103.871 34.0109 104.578 34.2594 104.996C34.9782 106.204 35.8029 107.343 36.4837 108.576C36.6828 108.936 37.2339 108.613 37.0346 108.252C36.4224 107.144 35.7007 106.11 35.0339 105.036C34.827 104.702 34.6292 104.369 34.4443 104.023C34.0576 103.299 34.1721 103.851 34.337 103.471C34.5827 102.906 35.3875 102.275 35.7783 101.784C36.3392 101.114 36.8297 100.387 37.2421 99.6162C37.3101 99.4905 37.2876 99.3349 37.1868 99.2338C37.086 99.1327 36.931 99.1101 36.8057 99.1783C35.4227 99.7838 33.9974 100.287 32.5411 100.683L32.9335 100.907C32.2047 98.9622 31.9694 96.8887 31.3637 94.9081C31.2788 94.6308 30.8018 94.5775 30.7485 94.9081C30.2979 97.2515 30.2133 99.651 30.498 102.02L30.7208 101.627C29.1039 102.039 27.443 102.251 25.7749 102.26C25.6333 102.264 25.5111 102.361 25.4741 102.498C25.4371 102.635 25.4938 102.78 25.6139 102.856C27.1791 103.817 28.8798 104.535 30.6586 104.987L30.4359 104.593C30.1509 106.473 30.4027 108.281 30.4593 110.166C30.4657 110.338 30.6066 110.474 30.7782 110.474C30.9499 110.474 31.0908 110.338 31.0972 110.166C31.3194 108.443 32.3287 107.046 33.0986 105.536L32.6622 105.65C34.1817 106.251 35.5048 107.264 36.4838 108.576C36.7077 108.919 37.2603 108.598 37.0346 108.252Z" fill="black"/>
<path d="M90.1272 16.1353C89.0961 14.726 87.6933 13.6334 86.0768 12.9805C85.9243 12.8948 85.7314 12.9455 85.6404 13.0953C84.8047 14.735 83.7921 16.1861 83.5519 18.0488H84.1898C84.1351 16.2261 83.8676 14.4673 84.1436 12.6459C84.1854 12.4762 84.0876 12.3033 83.9209 12.2523C81.907 11.6664 79.7845 11.339 77.9907 10.1861L77.8297 10.7824C79.8926 10.6418 81.9871 10.7485 83.983 10.1268C84.1493 10.0752 84.2469 9.90277 84.2058 9.73312C83.9422 7.47627 84.0267 5.19215 84.4563 2.96112H83.8412C84.4469 4.94169 84.6822 7.01515 85.411 8.95956C85.461 9.12752 85.634 9.22611 85.8034 9.18305C87.3119 8.76888 88.7882 8.24438 90.2204 7.61377L89.784 7.17595C89.24 8.17176 88.581 9.09985 87.8206 9.94105C87.5685 10.2388 86.8179 10.8122 86.7123 11.2224C86.5757 11.7533 87.1036 12.461 87.352 12.8787C88.0709 14.0871 88.8956 15.226 89.5764 16.4583C89.7755 16.8186 90.3266 16.4962 90.1273 16.1353C89.5151 15.0273 88.7933 13.9926 88.1266 12.9183C87.9197 12.5849 87.7219 12.2514 87.537 11.9054C87.1502 11.182 87.2648 11.7333 87.4297 11.3538C87.6754 10.7885 88.4802 10.1574 88.871 9.66659C89.4319 8.99641 89.9224 8.27003 90.3348 7.49897C90.4028 7.37329 90.3803 7.21774 90.2795 7.11663C90.1787 7.01552 90.0237 6.99295 89.8984 7.06114C88.5154 7.66662 87.0901 8.16956 85.6338 8.5659L86.0262 8.7894C85.2974 6.84498 85.0621 4.77154 84.4564 2.79096C84.3715 2.51359 83.8945 2.46027 83.8412 2.79096C83.3905 5.13434 83.306 7.5338 83.5907 9.90325L83.8134 9.50962C81.8733 10.114 79.834 10.0058 77.8297 10.1424C77.688 10.1467 77.5658 10.2435 77.5288 10.3807C77.4917 10.5179 77.5486 10.6633 77.6687 10.7387C79.5117 11.9233 81.6812 12.2672 83.7513 12.8694L83.5285 12.4758C83.2436 14.356 83.4953 16.1642 83.5519 18.0488C83.5583 18.2209 83.6992 18.3571 83.8709 18.3571C84.0425 18.3571 84.1834 18.2209 84.1898 18.0488C84.412 16.3256 85.4213 14.9289 86.1913 13.4183L85.7548 13.5331C87.2743 14.134 88.5974 15.1468 89.5764 16.4583C89.8004 16.8016 90.353 16.4813 90.1272 16.1353Z" fill="black"/>
<ellipse cx="205.011" cy="44.1922" rx="1.55438" ry="1.55942" fill="black"/>
<ellipse cx="69.6501" cy="130.231" rx="1.55438" ry="1.55943" fill="black"/>
<ellipse cx="127.195" cy="55.3094" rx="1.55438" ry="1.55943" fill="black"/>
<ellipse cx="5.6872" cy="145.052" rx="1.55438" ry="1.55942" fill="black"/>
<ellipse cx="333.691" cy="96.7" rx="1.55438" ry="1.55942" fill="black"/>
<ellipse cx="316.095" cy="34.1532" rx="1.55438" ry="1.55942" fill="black"/>
<ellipse cx="325.244" cy="221.88" rx="1.55438" ry="1.55942" fill="black"/>
<ellipse cx="263.341" cy="75.8674" rx="2.07942" ry="2.08617" fill="black"/>
<ellipse cx="137.372" cy="4.96117" rx="2.07943" ry="2.08617" fill="black"/>
<ellipse cx="66.0169" cy="47.6643" rx="2.07943" ry="2.08617" fill="black"/>
<ellipse cx="33.4505" cy="180.18" rx="2.07943" ry="2.08617" fill="black"/>
<ellipse cx="16.9603" cy="69.8284" rx="2.07943" ry="2.08617" fill="black"/>
</svg>
