<svg width="360" height="372" viewBox="0 0 360 372" fill="none" xmlns="http://www.w3.org/2000/svg">
<rect opacity="0.01" width="360" height="372" fill="white"/>
<path d="M74.0058 73.3959C73.8306 73.3959 73.6549 73.3871 73.4785 73.3696C71.3073 73.1539 69.207 71.7781 67.7164 69.5961C67.6559 69.5076 67.6472 69.3935 67.6937 69.2968C67.7401 69.2001 67.8346 69.1356 67.9415 69.1275C68.0484 69.1193 68.1516 69.1689 68.2121 69.2574C69.6022 71.293 71.5434 72.5744 73.5377 72.7731C75.7953 72.9881 78.0351 71.5901 78.5334 69.6371C78.8318 68.2218 78.3719 66.7533 77.3193 65.7611C76.761 65.2603 75.9525 65.1537 75.2835 65.4928C74.68 65.8012 74.3793 66.4936 74.566 67.1451C74.7796 67.9615 75.5374 68.5154 76.3801 68.4711C76.3977 68.4711 76.4173 68.4705 76.4328 68.4705C76.5985 68.469 76.7341 68.602 76.7356 68.7677C76.7371 68.9334 76.6041 69.069 76.4384 69.0705C75.3001 69.1408 74.2715 68.3952 73.9842 67.2916C73.7203 66.3647 74.1559 65.3815 75.0198 64.9543C75.9004 64.5094 76.9632 64.6461 77.7025 65.2994C78.9231 66.4465 79.4582 68.1465 79.1146 69.7859C78.5852 71.8596 76.3587 73.3959 74.0058 73.3959Z" fill="black"/>
<path d="M36.7232 195.583C36.3084 195.578 35.9064 195.439 35.5774 195.187C34.5841 194.373 34.0956 193.095 34.2933 191.826C34.6249 190.102 36.4692 188.776 38.4165 188.838C40.232 188.994 41.887 189.941 42.9423 191.426C43.0434 191.557 43.0193 191.745 42.8885 191.847C42.7577 191.948 42.5695 191.925 42.4677 191.794C41.5209 190.449 40.0312 189.588 38.3931 189.438C36.7206 189.376 35.1605 190.496 34.8828 191.94C34.7362 192.98 35.1324 194.022 35.9325 194.703C36.3463 195.038 36.9258 195.079 37.383 194.806C37.7912 194.569 37.9705 194.073 37.8084 193.63C37.6161 193.054 37.0406 192.695 36.4381 192.777C36.2736 192.789 36.1302 192.666 36.1156 192.502C36.1094 192.423 36.1349 192.344 36.1866 192.284C36.2384 192.223 36.312 192.186 36.3913 192.18C37.2727 192.072 38.1067 192.604 38.3802 193.449C38.6302 194.163 38.3349 194.953 37.6783 195.328C37.3863 195.492 37.0579 195.579 36.7232 195.583V195.583Z" fill="black"/>
<path d="M306.97 160.254C306.907 160.254 306.845 160.234 306.793 160.197C306.055 159.577 305.617 158.671 305.589 157.708C305.434 156.21 305.875 154.711 306.819 153.537C308.336 152.044 310.444 151.312 312.56 151.541C314.306 151.722 315.905 152.599 316.995 153.975C317.736 155.04 317.932 156.391 317.525 157.622C317.112 158.621 316.187 159.316 315.112 159.436C313.9 159.721 312.652 159.127 312.109 158.007C311.673 157.238 311.812 156.272 312.447 155.658C312.573 155.551 312.762 155.567 312.869 155.693C312.976 155.819 312.961 156.007 312.835 156.115C312.412 156.555 312.336 157.224 312.65 157.748C313.074 158.627 314.057 159.086 315.002 158.847C315.871 158.759 316.624 158.205 316.967 157.403C317.299 156.364 317.132 155.231 316.513 154.333C315.531 153.093 314.089 152.302 312.516 152.14C310.579 151.923 308.648 152.587 307.254 153.949C306.426 154.995 306.042 156.326 306.187 157.653C306.201 158.444 306.55 159.192 307.147 159.712C307.252 159.788 307.296 159.924 307.256 160.047C307.216 160.171 307.1 160.254 306.97 160.254L306.97 160.254Z" fill="black"/>
<path d="M182.082 247.668C179.871 247.582 177.874 246.325 176.841 244.369C175.88 242.627 175.555 240.442 175.875 237.872C175.888 237.766 175.957 237.675 176.056 237.633C176.154 237.591 176.268 237.605 176.353 237.67C176.439 237.735 176.484 237.84 176.47 237.946C176.167 240.387 176.468 242.451 177.366 244.079C178.334 245.935 180.266 247.088 182.359 247.059C183.45 247.05 184.483 246.566 185.188 245.733C185.771 244.949 185.987 243.952 185.779 242.998C185.505 241.935 184.607 241.149 183.517 241.018C182.756 240.864 181.985 241.23 181.623 241.917C181.549 242.065 181.369 242.125 181.221 242.051C181.073 241.977 181.013 241.797 181.086 241.649C181.555 240.723 182.583 240.222 183.601 240.424C184.943 240.594 186.043 241.573 186.368 242.887C186.609 244.01 186.352 245.182 185.663 246.101C184.854 247.071 183.661 247.64 182.398 247.658C182.293 247.665 182.187 247.668 182.082 247.668Z" fill="black"/>
<path fill-rule="evenodd" clip-rule="evenodd" d="M33.1016 89.2317C33.1016 90.8395 34.405 92.1428 36.0128 92.1428C37.62 92.1409 38.9223 90.8384 38.924 89.2313C38.9239 87.6235 37.6204 86.3202 36.0126 86.3203C34.4048 86.3204 33.1015 87.6239 33.1016 89.2317ZM33.8775 88.3471C34.2352 87.4834 35.078 86.9203 36.0128 86.9203C37.2886 86.9216 38.3226 87.9555 38.324 89.2313C38.3242 90.1661 37.7611 91.0089 36.8975 91.3668C36.0338 91.7246 35.0397 91.5269 34.3786 90.8659C33.7175 90.2049 33.5197 89.2108 33.8775 88.3471Z" fill="black"/>
<path fill-rule="evenodd" clip-rule="evenodd" d="M350.125 123.989C350.125 125.597 351.428 126.9 353.036 126.901C354.643 126.899 355.946 125.596 355.947 123.989C355.947 122.381 354.644 121.078 353.036 121.078C351.428 121.078 350.125 122.382 350.125 123.989ZM350.725 123.99C350.725 122.713 351.759 121.678 353.036 121.678C354.312 121.679 355.346 122.713 355.347 123.989C355.348 125.266 354.313 126.3 353.037 126.301C351.76 126.301 350.725 125.266 350.725 123.99Z" fill="black"/>
<path d="M315.143 69.3483C315.021 69.3483 314.911 69.2742 314.865 69.1608C314.819 69.0475 314.846 68.9177 314.934 68.8327C315.531 68.2594 315.775 67.4111 315.575 66.6082C315.376 65.8054 314.762 65.1706 313.967 64.9436C313.171 64.7167 312.315 64.9322 311.721 65.5087C311.602 65.6239 311.412 65.6208 311.297 65.5017C311.182 65.3826 311.185 65.1927 311.304 65.0775C312.052 64.3537 313.129 64.084 314.13 64.3701C315.13 64.6561 315.902 65.4545 316.154 66.4642C316.406 67.4738 316.1 68.5412 315.351 69.264C315.295 69.3181 315.221 69.3483 315.143 69.3483Z" fill="black"/>
<path d="M94.0028 13.0375C93.8946 13.0377 93.7947 12.9794 93.7415 12.8851C93.2289 11.9802 93.2379 10.8705 93.7652 9.97412C94.2926 9.07769 95.2581 8.53069 96.2981 8.53916C97.3381 8.54763 98.2946 9.1103 98.8072 10.0152C98.8879 10.1593 98.837 10.3415 98.6932 10.4228C98.5495 10.5041 98.3671 10.4539 98.2852 10.3105C97.8784 9.59128 97.1187 9.14388 96.2925 9.13702C95.4662 9.13017 94.6992 9.56491 94.2806 10.2773C93.862 10.9897 93.8555 11.8714 94.2636 12.5898C94.3028 12.6589 94.313 12.7409 94.2918 12.8175C94.2706 12.8941 94.2197 12.9591 94.1505 12.9982C94.1056 13.0241 94.0547 13.0376 94.0028 13.0375V13.0375Z" fill="black"/>
<path fill-rule="evenodd" clip-rule="evenodd" d="M201.417 146.37C201.752 147.179 202.542 147.707 203.418 147.707C204.613 147.706 205.582 146.737 205.584 145.541C205.584 144.665 205.056 143.875 204.247 143.54C203.438 143.205 202.506 143.39 201.887 144.009C201.267 144.629 201.082 145.56 201.417 146.37ZM201.852 145.541C201.852 144.676 202.553 143.975 203.418 143.975V143.975C204.282 143.976 204.983 144.677 204.984 145.541C204.984 146.406 204.283 147.107 203.418 147.107C202.553 147.107 201.852 146.406 201.852 145.541Z" fill="black"/>
<path fill-rule="evenodd" clip-rule="evenodd" d="M333.781 217.421C333.846 218.572 334.798 219.472 335.951 219.472C336.114 219.472 336.277 219.454 336.437 219.417C337.561 219.159 338.287 218.069 338.093 216.933C337.899 215.796 336.852 215.009 335.706 215.139C334.561 215.269 333.716 216.27 333.781 217.421ZM335.607 215.778C335.722 215.752 335.84 215.739 335.958 215.738C336.783 215.739 337.464 216.383 337.51 217.207C337.557 218.03 336.952 218.747 336.133 218.84C335.313 218.933 334.563 218.37 334.424 217.557C334.284 216.744 334.804 215.964 335.607 215.778Z" fill="black"/>
<path fill-rule="evenodd" clip-rule="evenodd" d="M278.519 8.01564C278.9 8.70544 279.624 9.13454 280.412 9.13635C280.575 9.13627 280.738 9.1178 280.898 9.08127C281.458 8.95506 281.945 8.60965 282.25 8.12209C282.885 7.10927 282.58 5.77322 281.568 5.13705C280.555 4.50089 279.219 4.80523 278.582 5.81702C278.163 6.48402 278.139 7.32585 278.519 8.01564ZM280.068 5.4426C280.183 5.41634 280.301 5.40298 280.419 5.40276C281.244 5.4033 281.926 6.04814 281.973 6.87246C282.019 7.69678 281.414 8.41399 280.593 8.5071C279.773 8.60021 279.023 8.03686 278.883 7.22312C278.744 6.40938 279.263 5.62816 280.068 5.4426Z" fill="black"/>
<path fill-rule="evenodd" clip-rule="evenodd" d="M210.412 37.4865C210.412 38.6829 211.382 39.6527 212.578 39.6527C213.774 39.6516 214.743 38.6824 214.745 37.4865C214.745 36.2902 213.775 35.3203 212.578 35.3203C211.382 35.3203 210.412 36.2902 210.412 37.4865ZM211.012 37.4865C211.012 36.6215 211.713 35.9203 212.578 35.9203C213.443 35.9212 214.144 36.6219 214.145 37.4865C214.145 38.3515 213.443 39.0527 212.578 39.0527C211.713 39.0527 211.012 38.3515 211.012 37.4865Z" fill="black"/>
<path fill-rule="evenodd" clip-rule="evenodd" d="M52.3994 248.206C52.7348 249.016 53.5248 249.544 54.4009 249.543C55.5967 249.542 56.5656 248.573 56.5669 247.377C56.5669 246.501 56.039 245.711 55.2296 245.376C54.4201 245.041 53.4883 245.226 52.8688 245.846C52.2493 246.465 52.064 247.397 52.3994 248.206ZM52.9537 246.778C53.1963 246.192 53.7674 245.811 54.4009 245.811V245.811C55.2654 245.812 55.9659 246.513 55.9669 247.377C55.9669 248.011 55.5852 248.582 54.9999 248.824C54.4147 249.067 53.741 248.933 53.2931 248.485C52.8452 248.037 52.7112 247.363 52.9537 246.778Z" fill="black"/>
<path d="M6.36679 152.23C5.59213 152.232 4.87575 151.819 4.48805 151.148C4.10034 150.478 4.10034 149.651 4.48805 148.98C4.87575 148.31 5.59213 147.897 6.36679 147.898C6.53248 147.898 6.66679 148.033 6.66679 148.198C6.66679 148.364 6.53248 148.498 6.36679 148.498C5.80661 148.497 5.28852 148.796 5.00811 149.281C4.7277 149.765 4.7277 150.363 5.00811 150.848C5.28852 151.333 5.80661 151.631 6.36679 151.63C6.53248 151.63 6.66679 151.765 6.66679 151.93C6.66679 152.096 6.53248 152.23 6.36679 152.23V152.23Z" fill="black"/>
<path d="M18.1023 277.778C17.297 277.777 16.5588 277.33 16.1858 276.616C15.8128 275.902 15.8666 275.041 16.3254 274.379C16.4199 274.243 16.6068 274.209 16.7429 274.304C16.879 274.398 16.9127 274.585 16.8182 274.721C16.3279 275.432 16.5055 276.406 17.2154 276.898C17.9252 277.39 18.8993 277.214 19.3928 276.505C19.4537 276.417 19.5574 276.368 19.6645 276.376C19.7716 276.385 19.8658 276.451 19.9115 276.548C19.9571 276.645 19.9472 276.759 19.8856 276.847C19.4801 277.432 18.8135 277.78 18.1023 277.778V277.778Z" fill="black"/>
<path fill-rule="evenodd" clip-rule="evenodd" d="M225.456 267.909C225.791 268.719 226.581 269.247 227.457 269.247C228.653 269.245 229.622 268.276 229.624 267.08C229.624 266.204 229.096 265.414 228.286 265.079C227.477 264.744 226.545 264.929 225.926 265.549C225.306 266.168 225.121 267.1 225.456 267.909ZM226.01 266.481C226.253 265.896 226.824 265.514 227.457 265.514C228.322 265.515 229.023 266.216 229.024 267.08C229.024 267.714 228.642 268.285 228.057 268.527C227.471 268.77 226.798 268.636 226.35 268.188C225.902 267.74 225.768 267.066 226.01 266.481Z" fill="black"/>
<path fill-rule="evenodd" clip-rule="evenodd" d="M42.4063 25.9316C42.4063 27.1278 43.376 28.0975 44.5722 28.0975C45.7679 28.096 46.7368 27.127 46.7381 25.9312C46.7379 24.7351 45.7681 23.7655 44.572 23.7656C43.3758 23.7657 42.4062 24.7355 42.4063 25.9316ZM43.1254 25.3324C43.3678 24.7472 43.9388 24.3656 44.5722 24.3656C45.4365 24.3667 46.1369 25.067 46.1381 25.9312C46.1382 26.5646 45.7568 27.1357 45.1716 27.3782C44.5865 27.6206 43.9129 27.4867 43.465 27.0389C43.0171 26.5911 42.8831 25.9175 43.1254 25.3324Z" fill="black"/>
<path d="M155.112 106.846C163.976 108.215 172.674 108.466 176.752 108.127C181.737 107.712 185.464 107.47 188.2 103.293C190.069 100.441 189.372 94.8794 184.683 88.6418C179.586 81.8607 160.357 58.0811 152.36 52.5507C151.697 52.0665 150.784 50.1638 150.021 49.242C149.186 48.2319 147.499 47.3051 147.105 47.3969L148.521 53.4098L148.709 55.7183C159.234 67.6445 173.122 86.7723 175.452 90.1019C178.232 94.0734 176.028 95.7084 168.463 95.4382C164.766 95.0887 161.093 94.5281 157.461 93.7594L155.112 106.846Z" fill="white"/>
<path d="M155.032 107.132C160.269 107.94 165.553 108.409 170.85 108.537C174.522 108.616 178.365 108.575 181.969 107.791C184.986 107.135 188.017 105.235 189.067 102.177C190.202 98.8684 188.851 95.0587 187.287 92.1322C185.868 89.4755 183.922 87.1233 182.063 84.7647C180.117 82.2952 178.143 79.8482 176.141 77.4235C171.395 71.6603 166.546 65.9637 161.412 60.5401C159.174 58.0999 156.791 55.797 154.276 53.6438C153.831 53.2745 153.372 52.9251 152.912 52.5746C152.104 51.845 151.432 50.9771 150.929 50.0116C150.155 48.8135 148.678 47.1149 147.105 47.0938C147.012 47.0951 146.925 47.1391 146.869 47.2132C146.812 47.2872 146.793 47.383 146.816 47.4731L147.943 52.2598C148.073 52.7562 148.176 53.2594 148.251 53.767C148.327 54.4119 148.199 55.2684 148.45 55.8661C148.681 56.4156 149.448 57.0116 149.841 57.4665C150.301 57.9995 150.758 58.5347 151.213 59.0723C152.254 60.3012 153.283 61.5395 154.301 62.787C156.407 65.3617 158.48 67.9631 160.52 70.591C164.178 75.2858 167.766 80.0348 171.283 84.8379C172.354 86.2972 173.417 87.7623 174.473 89.2331C175.271 90.3511 176.897 92.1461 176.13 93.5886C175.521 94.735 173.628 94.9334 172.512 95.0504C170.598 95.2284 168.67 95.2008 166.762 94.9679C163.664 94.6292 160.586 94.1282 157.54 93.467C157.381 93.4251 157.217 93.518 157.171 93.6763L154.822 106.763C154.755 107.14 155.332 107.302 155.4 106.922L156.418 101.255L157.179 97.0143C157.328 96.1809 157.765 95.0296 157.687 94.183C157.63 93.5655 157.789 94.2376 157.457 94.0616C157.944 94.2272 158.45 94.3296 158.962 94.3664C161.178 94.7949 163.407 95.1566 165.647 95.4358C168.04 95.7939 170.468 95.8518 172.876 95.6084C173.971 95.4708 175.259 95.2583 176.127 94.5075C177.768 93.0874 176.406 90.9338 175.437 89.5588C174.03 87.5622 172.582 85.5941 171.133 83.6277C166.179 76.9031 161.116 70.2526 155.861 63.7598C154.292 61.8207 152.7 59.9004 151.085 57.9989C150.499 57.3123 149.395 56.4524 149.005 55.6694C148.76 55.1778 148.907 54.2208 148.842 53.6721C148.592 51.5401 147.886 49.4042 147.394 47.3138L147.105 47.6931C149.173 47.721 150.418 50.461 151.404 51.8787C152.058 52.6632 152.821 53.3498 153.67 53.9174C155.696 55.6194 157.624 57.4347 159.444 59.3547C164.185 64.2219 168.636 69.3739 173 74.578C176.627 78.9024 180.204 83.2762 183.638 87.7555C187.65 92.9876 192.641 102.753 184.044 106.515C180.493 108.068 175.989 107.984 172.168 107.957C166.483 107.895 160.809 107.426 155.191 106.554C154.814 106.497 154.651 107.074 155.032 107.132Z" fill="black"/>
<path d="M128.271 81.0984C127.503 79.0203 127.795 71.4625 131.581 69.8464C133.928 68.8444 138.131 71.3371 141.218 71.1241C145.509 70.8279 146.149 66.7496 147.247 63.8743C147.377 63.5351 147.529 62.891 148.246 62.9595C148.765 63.0092 149.125 63.0849 149.645 63.1359C151.835 63.3509 152.699 61.4018 151.581 60.1158C150.943 59.5756 150.127 59.2918 149.292 59.3197C149.056 59.3119 148.833 59.2047 148.68 59.0244C148.527 58.8441 148.456 58.6075 148.487 58.3727C148.804 55.6965 148.647 52.9853 148.024 50.3634C147.017 45.4174 143.98 43.7855 140.682 43.7891C137.879 43.7921 133.859 45.8822 131.405 51.7365C128.962 57.5642 125.729 72.1473 122.765 76.818C122.216 77.6261 121.626 78.4049 120.996 79.1513C121.97 80.2658 123.237 81.0853 124.653 81.5168C127.045 82.2262 128.271 81.0984 128.271 81.0984Z" fill="white"/>
<path fill-rule="evenodd" clip-rule="evenodd" d="M124.568 81.8072C125.088 81.967 125.629 82.0505 126.173 82.0551C127.003 82.0919 127.818 81.832 128.473 81.3221L128.621 81.1855L128.552 80.9975C127.817 79.0076 128.079 71.6705 131.699 70.1254C132.902 69.6115 134.703 70.11 136.608 70.6373L136.609 70.6375L136.624 70.6416C138.194 71.0768 139.816 71.5266 141.239 71.4267C145.089 71.1608 146.134 68.0598 147.057 65.3237L147.057 65.323L147.067 65.2916C147.22 64.8408 147.368 64.3999 147.527 63.9842L147.568 63.8734C147.732 63.4135 147.86 63.2219 148.217 63.2611C148.474 63.2857 148.692 63.3168 148.91 63.3484C149.132 63.3801 149.353 63.4117 149.615 63.4375C150.62 63.6203 151.632 63.156 152.149 62.275C152.538 61.4962 152.401 60.5577 151.807 59.9219C151.2 59.2235 149.942 59.0277 149.294 59.0225C149.152 59.0209 149.017 58.9584 148.924 58.8508C148.817 58.7298 148.766 58.5693 148.785 58.409C149.106 55.7017 148.948 52.9591 148.318 50.3066C147.171 44.6758 143.541 43.4922 140.693 43.4922H140.682C137.846 43.4951 133.642 45.6262 131.128 51.6232C130.137 53.9881 129.024 57.7574 127.846 61.7482C126.164 67.4482 124.258 73.9082 122.511 76.6604C121.971 77.4552 121.39 78.2217 120.77 78.9566L120.605 79.1447L120.761 79.3404C121.771 80.5058 123.091 81.361 124.568 81.8072ZM124.738 81.2318C123.463 80.8365 122.311 80.1198 121.393 79.1506C121.882 78.5611 122.694 77.4918 123.018 76.9815C124.809 74.1584 126.646 67.9358 128.422 61.9182L128.422 61.9176C129.595 57.9434 130.703 54.1896 131.681 51.8553C134.082 46.1295 138.031 44.0951 140.683 44.0922H140.693C143.317 44.0922 146.664 45.1926 147.73 50.4262C148.346 53.0175 148.501 55.6971 148.188 58.3422C148.151 58.6713 148.255 59.0007 148.475 59.2487C148.68 59.4846 148.977 59.6208 149.289 59.6225C150.039 59.5948 150.773 59.8412 151.354 60.3156C151.784 60.7673 151.888 61.4386 151.616 61.9996C151.207 62.6578 150.433 62.9928 149.674 62.8398C149.422 62.8152 149.208 62.7848 148.995 62.7543C148.769 62.7215 148.542 62.6893 148.274 62.6635C147.656 62.6284 147.109 63.0615 147.003 63.6713L146.966 63.7697C146.804 64.1945 146.652 64.6458 146.497 65.1064L146.488 65.1314C145.584 67.815 144.649 70.5895 141.197 70.8279C139.87 70.917 138.295 70.4822 136.769 70.0598C134.76 69.5025 132.862 68.977 131.463 69.5734C127.583 71.2293 127.202 78.5547 127.919 80.991C127.547 81.2354 126.489 81.751 124.738 81.2318Z" fill="black"/>
<path d="M150.97 347.718C150.815 348.908 149.799 349.797 148.6 349.794H144.586C143.941 349.794 143.324 349.533 142.874 349.071C142.424 348.609 142.18 347.985 142.198 347.34C143.278 302.232 131.686 254.412 117.154 215.874C116.782 257.28 106.48 335.58 103.468 346.488C103.024 347.796 102.61 349.95 100.42 349.938C98.7868 349.923 97.1576 349.779 95.5476 349.506C93.3696 349.158 93.7536 346.326 93.9276 345.078C97.9776 308.358 92.5536 276.216 89.6856 237.954C88.7556 225.522 83.7516 211.788 83.7516 211.788C78.9036 198.99 76.0296 189.936 75.7656 177.57C81.8556 183.516 103.078 185.148 112.252 185.016C118.498 184.926 135.592 186.12 144.124 181.482C152.23 215.898 153.214 235.068 154.408 274.896C154.984 294.054 153.712 326.052 150.97 347.718Z" fill="white"/>
<path d="M150.68 347.637C150.252 349.656 148.453 349.493 146.877 349.493C145.514 349.493 143.635 349.82 142.839 348.444C142.229 347.389 142.532 345.816 142.547 344.629C142.563 343.361 142.569 342.094 142.566 340.826C142.56 338.371 142.518 335.917 142.442 333.464C142.116 323.472 141.288 313.503 139.96 303.595C137.306 284.017 133.136 264.674 127.488 245.741C124.509 235.639 121.161 225.656 117.442 215.793C117.398 215.652 117.26 215.564 117.114 215.584C116.968 215.603 116.858 215.726 116.853 215.873C116.671 234.91 115.001 253.949 113.117 272.881C111.28 291.346 109.112 309.793 106.397 328.151C105.609 333.482 104.828 338.835 103.717 344.111C103.571 344.807 103.425 345.506 103.236 346.191C103.058 346.966 102.782 347.715 102.415 348.42C101.451 350.063 99.4484 349.662 97.8276 349.504C96.1576 349.342 94.3684 349.356 94.1138 347.322C94.0651 346.19 94.1441 345.057 94.3491 343.943C94.7122 340.494 94.9983 337.039 95.2074 333.577C96.8632 306.359 93.6067 279.243 91.1695 252.178C90.5587 245.394 90.3251 238.514 89.239 231.786C88.3358 226.384 87.0541 221.052 85.4035 215.83C84.3027 212.279 82.9323 208.836 81.6932 205.332C79.5299 199.499 77.9215 193.474 76.8894 187.339C76.4078 184.103 76.1324 180.84 76.0649 177.569L75.5527 177.781C78.3681 180.452 82.4985 181.639 86.1695 182.55C91.1142 183.718 96.1437 184.493 101.211 184.866C105.362 185.218 109.495 185.287 113.656 185.312C118.423 185.341 123.185 185.481 127.949 185.222C133.436 184.923 139.341 184.354 144.274 181.74L143.834 181.56C146.313 192.111 148.48 202.737 150.018 213.468C151.458 223.511 152.327 233.621 152.896 243.748C154.147 266.026 154.631 288.314 153.621 310.609C153.06 323.001 152.217 335.405 150.669 347.717C150.621 348.099 151.221 348.095 151.269 347.717C154.011 325.915 155 303.735 154.831 281.77C154.743 270.317 154.264 258.844 153.69 247.406C153.179 237.209 152.416 227.022 151.089 216.896C149.459 204.96 147.231 193.113 144.412 181.401C144.386 181.312 144.321 181.24 144.235 181.205C144.149 181.17 144.052 181.176 143.971 181.222C139.496 183.594 134.172 184.209 129.193 184.546C124.476 184.866 119.751 184.79 115.027 184.727C106.247 184.609 97.5408 184.338 88.9014 182.554C84.5459 181.655 79.314 180.523 75.977 177.357C75.89 177.274 75.7627 177.251 75.6521 177.297C75.5414 177.342 75.468 177.449 75.4648 177.569C75.6157 183.881 76.5274 190.151 78.1803 196.244C79.6566 201.688 81.7 206.917 83.5882 212.222C84.9359 216.069 86.0836 219.983 87.0267 223.949C88.6706 230.718 89.3209 237.48 89.8952 244.404C92.2263 272.509 96.0287 300.618 94.8482 328.881C94.7011 332.403 94.4781 335.92 94.1793 339.434C94.0343 341.127 93.8761 342.82 93.6887 344.509C93.4999 345.538 93.4548 346.587 93.5549 347.628C93.9184 349.787 95.7274 349.882 97.5896 350.079C99.816 350.314 102.069 350.641 103.144 348.308C103.928 346.605 104.236 344.632 104.592 342.803C105.088 340.251 105.517 337.685 105.929 335.118C108.721 317.742 110.818 300.242 112.696 282.747C114.86 262.598 116.749 242.357 117.332 222.092C117.392 220.02 117.432 217.946 117.453 215.873L116.864 215.953C124.125 235.157 129.965 254.869 134.337 274.929C138.903 296.032 141.764 317.583 141.956 339.193C141.969 340.643 141.97 342.093 141.958 343.544C141.947 344.91 141.718 346.426 141.925 347.774C142.145 349.124 143.32 350.11 144.687 350.093C146.97 350.219 150.639 350.724 151.258 347.797C151.338 347.42 150.76 347.259 150.68 347.637Z" fill="black"/>
<path d="M149.975 349.673C149.784 351.499 150.895 353.753 151.935 355.266C152.847 356.568 154.184 357.511 155.716 357.935C157.367 358.37 159.068 358.592 160.775 358.597C162.127 358.601 163.541 358.527 164.747 359.136C165.623 359.567 166.291 360.327 166.607 361.25C166.953 362.233 166.567 363.609 165.531 363.722C164.59 363.825 163.243 363.887 162.65 363.887C156.724 364.075 152.818 363.916 147.653 363.785C147.367 363.809 147.081 363.734 146.843 363.573C146.531 363.302 146.562 362.82 146.58 362.407C146.647 361.806 146.495 361.199 146.152 360.701C145.776 360.203 145.075 360.089 144.562 360.442C143.751 361.154 144.416 363.299 143.402 363.667C143.237 363.727 141.405 363.686 140.271 363.64C139.824 363.621 139.46 363.273 139.42 362.827C139.205 360.494 139.396 357.557 140.441 355.529C140.96 354.521 141.739 353.669 142.305 352.686C142.936 351.792 143.262 350.719 143.236 349.625L149.975 349.673Z" fill="black"/>
<path d="M101.448 349.812C101.256 351.639 102.367 353.893 103.408 355.406C104.32 356.708 105.657 357.651 107.189 358.074C108.84 358.509 110.54 358.732 112.248 358.737C113.6 358.74 115.013 358.666 116.22 359.276C117.095 359.707 117.764 360.467 118.079 361.39C118.426 362.372 118.039 363.749 117.004 363.862C116.062 363.965 114.716 364.027 114.122 364.027C108.197 364.214 104.291 364.055 99.1257 363.925C98.8394 363.949 98.5534 363.874 98.3157 363.713C98.0037 363.442 98.035 362.96 98.0523 362.547C98.1199 361.945 97.9679 361.339 97.6243 360.84C97.249 360.342 96.548 360.229 96.0344 360.582C95.2239 361.294 95.8883 363.439 94.8742 363.807C94.7099 363.866 92.8779 363.825 91.7439 363.779C91.2964 363.761 90.9323 363.413 90.8931 362.967C90.6779 360.634 90.8689 357.697 91.9134 355.669C92.4328 354.661 93.2117 353.808 93.7781 352.826C94.4176 351.723 94.7483 350.469 94.7355 349.195L97.8792 349.94L101.448 349.812Z" fill="black"/>
<circle cx="144.614" cy="56.3265" r="0.810905" fill="black"/>
<path d="M142.108 53.9815C142.366 53.3924 142.85 52.9317 143.451 52.7032C144.053 52.4747 144.72 52.4975 145.305 52.7665C145.842 52.9833 146.075 52.1131 145.544 51.8987C143.93 51.2294 142.075 51.9464 141.33 53.5272C141.08 54.0465 141.856 54.5035 142.108 53.9815V53.9815Z" fill="black"/>
<path d="M132.882 52.8004C132.601 52.2662 132.062 51.9167 131.46 51.878C130.055 51.7367 129.017 53.021 128.743 53.5062C128.273 54.3781 128.048 55.3615 128.094 56.3511C128.112 57.3271 128.606 58.2326 129.417 58.7766C130.237 59.2743 131.934 59.4394 132.614 58.4425L132.882 52.8004Z" fill="white"/>
<path d="M133.142 52.648C132.533 51.4777 131.016 51.3365 129.941 51.9224C128.71 52.6811 127.924 53.9902 127.833 55.4335C127.666 56.8807 128.098 58.4834 129.51 59.1615C130.606 59.7451 131.956 59.5385 132.827 58.6536C133.077 58.3621 132.655 57.9358 132.403 58.2294C131.717 58.9259 130.654 59.0845 129.795 58.6182C128.481 57.999 128.242 56.4528 128.473 55.1709C128.584 54.4449 128.884 53.7609 129.343 53.1872C130.098 52.3055 131.866 51.4955 132.624 52.9508C132.802 53.2934 133.32 52.9904 133.142 52.648V52.648Z" fill="black"/>
<path d="M131.783 53.651C131.009 53.3887 130.153 53.6325 129.633 54.2635C129.126 54.8728 128.969 55.7005 129.218 56.453C129.346 56.8142 129.926 56.6585 129.796 56.2935C129.58 55.7521 129.687 55.1348 130.074 54.6982C130.46 54.2616 131.06 54.0803 131.624 54.2295C131.781 54.2671 131.94 54.1732 131.983 54.0173C132.026 53.8613 131.937 53.6994 131.783 53.651V53.651Z" fill="black"/>
<path d="M150.403 47.1462C149.478 47.3713 148.53 47.4861 147.577 47.4882C141.895 47.6562 136.507 48.0282 131.101 51.7062V51.7062C129.485 49.8511 128.803 47.3599 129.249 44.9402C129.696 42.5204 131.221 40.4364 133.393 39.2802C133.233 39.086 133.146 38.8419 133.147 38.5902C133.145 37.9822 133.629 37.4838 134.237 37.4691C134.845 37.4544 135.353 37.9287 135.379 38.5362C138.971 37.7262 142.656 39.4455 144.343 42.7182C145.663 42.9402 146.983 43.1682 148.303 43.3902C148.929 43.4719 149.549 43.5962 150.157 43.7622C150.991 44.0142 151.813 44.4582 151.903 45.1422C152.029 46.1442 151.513 46.8042 150.403 47.1462Z" fill="black"/>
<path d="M142.341 65.5753C142.866 65.5252 143.386 65.7214 143.747 66.1066C143.995 66.3469 144.534 67.2561 143.754 67.2344C143.444 67.2258 143.065 66.8929 142.818 66.7305C142.485 66.5123 141.491 65.8774 142.341 65.5753C142.702 65.4468 142.546 64.8669 142.181 64.9967C141.801 65.1022 141.517 65.4176 141.45 65.8063C141.384 66.1949 141.548 66.587 141.871 66.8128C142.406 67.2395 143.293 67.9651 144.029 67.8235C144.844 67.667 144.892 66.7391 144.539 66.1339C144.049 65.3203 143.123 64.8739 142.181 64.9967C141.802 65.0634 141.963 65.6417 142.341 65.5753Z" fill="black"/>
<path d="M135.873 113.035C135.765 111.952 136.117 110.874 136.845 110.065C137.572 109.256 138.606 108.791 139.694 108.783C140.329 108.797 140.963 108.847 141.592 108.932C144.747 109.303 147.138 110.096 150.282 110.756C152.905 111.306 154.165 110.685 154.637 109.013C155.554 105.765 157.016 98.2033 157.757 95.4729C158.106 94.1874 158.774 91.8782 157.298 90.3615C156.58 89.6235 155.206 89.2128 154.22 88.9132C145.92 86.473 137.762 83.5708 129.785 80.2203C129.54 80.1191 129.26 80.149 129.041 80.2997C128.119 80.9218 126.278 81.6886 124.706 81.0517C122.654 80.2199 121.677 79.4009 120.975 78.4168C120.841 78.2243 120.627 78.1013 120.393 78.0811C120.159 78.0608 119.928 78.1454 119.763 78.312C116.111 82.0362 110.56 85.8212 106.228 89.5482C79.8557 110.974 68.5287 146.73 74.2712 175.241C76.5883 183.099 101.976 185.167 112.252 185.021C119.47 184.917 141.166 186.524 147.412 178.868C153.86 171.26 152.869 160.817 149.991 150.35C146.629 138.12 137.049 125.663 135.873 113.035Z" fill="black"/>
<path d="M108.928 153.48C111.386 157.516 114.074 161.883 117.153 166.636C120.388 171.629 129.091 182.439 133.997 185.803C139.558 189.615 155.876 195.408 178.807 196.321C181.151 196.608 182.076 196.889 187.528 200.837C189.76 202.454 194.248 204.161 196.755 204.356L202.405 205.023C203.22 205.087 206.413 205.413 207.388 205.045C207.977 204.881 208.295 203.548 205.779 203.297C198.274 202.547 198.554 201.387 198.554 201.387C198.648 200.751 200.69 201.101 201.324 201.167C203.467 201.392 204.916 201.487 206.992 201.738C208.601 201.932 209.971 202.09 210.114 201.135C210.151 200.58 209.869 200.314 208.786 200.182C205.74 199.808 203.055 199.58 200.033 199.048C199.548 198.954 199.266 198.407 199.612 198.068C200.236 197.515 207.226 198.84 209.522 199.045C209.882 199.077 210.619 199.112 210.828 198.516C210.908 198.279 210.884 198.019 210.761 197.801C210.638 197.583 210.428 197.428 210.184 197.373C209.587 197.215 208.451 197.04 207.764 196.938C205.133 196.546 202.594 196.426 199.952 196.12C199.737 196.111 199.559 195.949 199.529 195.735C199.499 195.522 199.626 195.317 199.831 195.249C200.513 195.072 205.188 195.571 207.506 195.671C207.934 195.709 208.363 195.62 208.74 195.414C209.411 195.071 209.305 194.262 208.721 193.821C208.356 193.633 207.957 193.52 207.548 193.489C203.835 192.952 197.037 193.013 193.709 192.463C193.531 192.433 193.401 192.278 193.403 192.097C193.405 191.916 193.539 191.764 193.718 191.738C195.039 191.545 196.022 191.703 197.906 191.418C199.607 191.16 200.127 190.879 200.071 190.31C199.993 189.537 198.951 189.457 198.579 189.423C197.115 189.314 195.645 189.365 194.192 189.573C192.954 189.723 191.567 190.039 190.168 190.336C187.268 190.952 183.779 189.938 180.045 189.102C163.99 185.088 149.388 178.395 144.672 174.903C139.064 170.751 135.412 164.523 132.158 158.35C129.744 153.774 127.552 149.401 125.525 145.062L108.928 153.48Z" fill="white"/>
<path fill-rule="evenodd" clip-rule="evenodd" d="M202.713 205.352C203.769 205.442 204.873 205.52 205.782 205.52C206.35 205.548 206.919 205.486 207.467 205.335C207.876 205.207 208.139 204.81 208.098 204.384C208.067 204.034 207.783 203.197 205.808 203C199.993 202.419 199.025 201.609 198.874 201.414C198.994 201.324 199.441 201.236 200.99 201.431C201.108 201.446 201.211 201.459 201.291 201.467C202.164 201.559 202.922 201.629 203.654 201.697L203.687 201.7C204.741 201.798 205.74 201.89 206.955 202.036L206.955 202.037C208.635 202.24 210.222 202.432 210.413 201.156C210.471 200.271 209.819 200.008 208.821 199.885C208.039 199.789 207.281 199.703 206.535 199.619L206.318 199.594C204.225 199.358 202.247 199.135 200.088 198.755C199.942 198.729 199.82 198.628 199.768 198.488C199.744 198.425 199.756 198.354 199.8 198.302C200.268 198.027 203.991 198.576 206.245 198.908L206.282 198.913C207.616 199.11 208.768 199.28 209.494 199.345C210.372 199.424 210.912 199.178 211.11 198.618C211.216 198.31 211.19 197.972 211.037 197.685C210.874 197.384 210.592 197.166 210.26 197.085C209.808 196.965 209.006 196.82 207.807 196.643C206.231 196.408 204.662 196.268 203.144 196.133L203.121 196.131L203.099 196.129C202.084 196.039 201.035 195.945 199.991 195.825C199.902 195.825 199.828 195.755 199.823 195.666C199.814 195.609 199.85 195.555 199.906 195.541C201.361 195.521 202.816 195.592 204.262 195.751C205.426 195.842 206.629 195.935 207.492 195.973C207.971 196.011 208.451 195.91 208.875 195.683C209.225 195.52 209.462 195.183 209.497 194.798C209.518 194.318 209.294 193.861 208.901 193.583C208.499 193.357 208.051 193.224 207.59 193.193C205.757 192.929 203.163 192.807 200.655 192.69L200.634 192.689C198.076 192.569 195.433 192.446 193.757 192.169C193.741 192.168 193.725 192.161 193.715 192.148C193.704 192.135 193.7 192.119 193.702 192.102C193.7 192.086 193.705 192.069 193.716 192.056C193.727 192.044 193.743 192.036 193.76 192.036C194.309 191.965 194.861 191.926 195.414 191.92C196.263 191.908 197.11 191.84 197.95 191.716C199.331 191.507 200.465 191.255 200.368 190.281C200.268 189.276 199.032 189.164 198.605 189.125C197.12 189.015 195.628 189.065 194.155 189.277C193.071 189.408 191.904 189.658 190.669 189.923L190.667 189.923L190.105 190.044C187.667 190.562 184.734 189.881 181.63 189.16L181.616 189.157C181.119 189.041 180.616 188.924 180.116 188.812C163.473 184.651 149.233 177.909 144.849 174.664C139.169 170.457 135.456 163.966 132.422 158.212C129.914 153.456 127.747 149.114 125.796 144.937L125.665 144.656L108.502 153.362L108.67 153.638C111.094 157.617 113.768 161.965 116.9 166.801C120.043 171.651 128.856 182.644 133.827 186.052C137.05 188.262 142.875 190.59 149.81 192.441C159.283 194.877 168.994 196.279 178.77 196.62C181.031 196.897 181.924 197.152 187.351 201.082C189.614 202.72 194.172 204.458 196.719 204.656L202.381 205.324L202.713 205.352ZM117.404 166.475C114.348 161.757 111.728 157.502 109.352 153.603L125.384 145.472C127.305 149.572 129.435 153.834 131.891 158.492C134.956 164.305 138.711 170.864 144.493 175.146C148.914 178.42 163.248 185.214 179.978 189.397C180.43 189.498 180.879 189.602 181.324 189.705L181.48 189.741L181.488 189.743C184.662 190.48 187.66 191.176 190.229 190.631L190.792 190.51C192.015 190.248 193.169 190.001 194.227 189.872C195.666 189.667 197.123 189.617 198.572 189.725C199.106 189.773 199.726 189.887 199.771 190.341C199.795 190.576 199.668 190.849 197.86 191.123C197.044 191.243 196.221 191.309 195.396 191.32C194.82 191.327 194.245 191.367 193.674 191.442C193.348 191.489 193.106 191.767 193.102 192.095C193.099 192.424 193.335 192.706 193.659 192.761C195.972 193.053 198.297 193.23 200.627 193.29L200.647 193.291C203.134 193.407 205.705 193.527 207.519 193.789C207.872 193.819 208.218 193.911 208.539 194.061C208.765 194.216 208.9 194.472 208.899 194.746C208.881 194.924 208.767 195.078 208.602 195.148C208.272 195.332 207.893 195.411 207.517 195.373C206.666 195.336 205.467 195.243 204.309 195.153C201.773 194.956 200.202 194.844 199.754 194.96C199.421 195.047 199.198 195.359 199.224 195.703C199.246 196.08 199.54 196.385 199.917 196.42C200.981 196.543 202.042 196.638 203.068 196.729C204.585 196.863 206.152 197.003 207.719 197.236L207.737 197.239C208.187 197.306 209.476 197.498 210.106 197.665C210.277 197.703 210.422 197.812 210.506 197.965C210.58 198.105 210.594 198.269 210.544 198.418C210.446 198.696 210.128 198.802 209.548 198.748C208.838 198.684 207.639 198.507 206.37 198.32C201.841 197.652 199.87 197.437 199.4 197.855C199.185 198.063 199.104 198.375 199.194 198.662C199.31 199.016 199.612 199.279 199.979 199.345C202.148 199.727 204.123 199.95 206.211 200.186L206.251 200.191L206.33 200.2C207.119 200.289 207.92 200.379 208.749 200.481C209.846 200.615 209.831 200.859 209.817 201.091L209.817 201.092C209.723 201.72 208.652 201.638 207.026 201.441C205.802 201.293 204.799 201.2 203.739 201.102L203.709 201.1L203.588 201.088C202.896 201.024 202.176 200.957 201.355 200.871L201.065 200.835L201.062 200.835C199.994 200.701 198.381 200.498 198.261 201.319C198.235 201.469 198.275 201.624 198.372 201.742C198.93 202.529 201.481 203.171 205.749 203.597C206.998 203.722 207.473 204.127 207.499 204.436C207.514 204.584 207.423 204.722 207.281 204.766C206.474 205.07 203.778 204.84 202.764 204.754L196.778 204.059C194.305 203.866 189.895 202.184 187.702 200.596C182.156 196.579 181.223 196.316 178.818 196.022C155.927 195.111 139.574 189.265 134.166 185.558C129.257 182.192 120.523 171.289 117.404 166.475Z" fill="black"/>
<path d="M96.0086 138.963C98.7389 143.445 101.337 148.048 104.218 152.433C105.1 153.775 106.196 154.651 107.878 154.424C109.921 154.149 111.964 152.857 113.788 151.972C115.979 150.909 118.143 149.792 120.281 148.622C122.034 147.663 124.275 146.76 125.641 145.249C126.967 143.782 126.412 142.113 125.823 140.435C124.949 137.94 124.071 135.447 123.188 132.955L117.234 116.057C117.107 115.695 116.527 115.851 116.656 116.216L122.317 132.284C123.293 135.054 124.276 137.821 125.245 140.594C125.836 142.288 126.314 143.929 124.765 145.262C123.729 146.042 122.619 146.72 121.452 147.287C119.166 148.572 116.847 149.796 114.495 150.959C113.236 151.582 111.967 152.187 110.691 152.774C109.104 153.504 107.107 154.574 105.543 153.169C104.56 152.286 103.939 150.828 103.266 149.723L101.121 146.203L96.5267 138.661C96.3261 138.331 95.807 138.632 96.0086 138.963L96.0086 138.963Z" fill="white"/>
<path d="M114.637 193.109C117.074 201.471 117.152 215.873 117.152 215.873C117.152 215.873 122.163 213.784 120.791 199.905" stroke="black" stroke-linecap="round" stroke-dasharray="6"/>
<path d="M79.0625 184.195C91.0598 188.513 103.756 190.557 116.503 190.225C136.301 189.637 137.558 187.927 137.558 187.927" stroke="black" stroke-linecap="round" stroke-dasharray="6"/>
<path fill-rule="evenodd" clip-rule="evenodd" d="M97.3768 346.244C97.3906 346.246 97.4045 346.247 97.4184 346.247H97.4184C97.5759 346.247 97.7065 346.125 97.7173 345.968C97.7281 345.811 97.6155 345.672 97.4594 345.65C96.2927 345.504 95.1473 345.22 94.0472 344.805C93.8949 344.741 93.7196 344.812 93.6549 344.964C93.5902 345.116 93.6605 345.291 93.8122 345.357C94.96 345.796 96.157 346.094 97.3768 346.244ZM99.1973 346.411C99.4783 346.424 99.7677 346.43 100.065 346.43C100.995 346.43 101.923 346.364 102.844 346.232C102.95 346.216 103.04 346.146 103.079 346.046C103.119 345.946 103.103 345.833 103.037 345.749C102.97 345.665 102.864 345.622 102.758 345.637C101.588 345.803 100.405 345.862 99.2236 345.812C99.0591 345.807 98.9203 345.934 98.9108 346.098C98.9072 346.177 98.9353 346.255 98.9891 346.314C99.0429 346.373 99.1178 346.407 99.1973 346.411Z" fill="black"/>
<path fill-rule="evenodd" clip-rule="evenodd" d="M145.563 346.313C145.572 346.314 145.58 346.315 145.589 346.315V346.315C145.749 346.314 145.881 346.188 145.888 346.027C145.894 345.867 145.774 345.73 145.614 345.716C144.442 345.63 143.283 345.407 142.163 345.05C142.007 344.993 141.835 345.073 141.778 345.228C141.721 345.384 141.801 345.556 141.957 345.613C143.126 345.991 144.337 346.226 145.563 346.313ZM147.086 346.086C147.086 346.251 147.221 346.385 147.387 346.384H147.389C148.609 346.374 149.825 346.25 151.021 346.014C151.184 345.982 151.289 345.824 151.257 345.662C151.225 345.499 151.068 345.394 150.905 345.426C149.745 345.655 148.567 345.775 147.384 345.784C147.219 345.785 147.085 345.92 147.086 346.086Z" fill="black"/>
<path d="M263.503 340.007C262.039 344.963 258.913 353.777 257.443 358.733C257.353 359.045 257.245 359.423 257.119 359.831C256.848 360.912 256.411 361.944 255.823 362.891C255.247 363.569 254.391 363.944 253.502 363.906C252.613 363.869 251.791 363.423 251.275 362.699C250.573 361.583 250.957 359.393 251.239 358.127C251.317 357.767 251.383 357.479 251.419 357.317C253.039 349.967 255.211 339.905 256.831 332.555L263.503 340.007Z" fill="white"/>
<path fill-rule="evenodd" clip-rule="evenodd" d="M253.478 364.21C253.541 364.213 253.603 364.215 253.666 364.215C254.596 364.226 255.478 363.807 256.059 363.081C256.682 362.111 257.138 361.044 257.406 359.923C257.531 359.517 257.64 359.14 257.731 358.822C258.459 356.368 259.614 352.903 260.732 349.552L260.738 349.534C261.877 346.121 263.053 342.594 263.791 340.095L263.839 339.935L256.665 331.922L256.539 332.494C255.728 336.169 254.78 340.522 253.832 344.876L253.794 345.049C252.859 349.344 251.925 353.63 251.126 357.256L250.946 358.065C250.429 360.39 250.454 361.959 251.021 362.862C251.58 363.676 252.491 364.176 253.478 364.21ZM254.584 344.244C255.428 340.37 256.265 336.527 256.999 333.195L263.169 340.086C262.429 342.568 261.278 346.021 260.163 349.362C259.044 352.718 257.886 356.189 257.152 358.662L257.148 358.675C257.061 358.982 256.955 359.349 256.832 359.747C256.561 360.788 256.142 361.785 255.589 362.708C255.09 363.335 254.311 363.674 253.512 363.611C252.72 363.584 251.987 363.189 251.529 362.542C251.057 361.791 251.058 360.328 251.532 358.194L251.712 357.385C252.523 353.71 253.471 349.356 254.419 345.003L254.584 344.244Z" fill="black"/>
<path d="M277.891 346.308C276.295 351.252 274.999 356.484 273.829 360.426C273.709 360.828 273.535 361.464 273.313 362.178C272.911 363.498 272.341 365.076 271.669 365.862C270.523 367.212 267.967 366.516 267.259 365.268C266.623 364.158 266.809 362.484 266.983 361.494C267.031 361.254 267.073 361.056 267.103 360.918C268.165 356.106 269.377 350.316 270.667 344.25L277.891 346.308Z" fill="white"/>
<path fill-rule="evenodd" clip-rule="evenodd" d="M269.579 366.883C269.694 366.894 269.807 366.899 269.919 366.899C270.67 366.929 271.396 366.621 271.896 366.059C272.47 365.388 273.026 364.148 273.599 362.269C273.743 361.806 273.867 361.375 273.969 361.019L273.975 361L274.116 360.513C274.557 359.026 275.016 357.358 275.502 355.591C276.289 352.726 277.182 349.478 278.176 346.402L278.271 346.106L270.439 343.875L269.423 348.667C268.489 353.078 267.606 357.245 266.81 360.856C266.779 360.995 266.737 361.195 266.687 361.444C266.381 363.186 266.486 364.523 266.998 365.418C267.587 366.278 268.539 366.818 269.579 366.883ZM270.01 348.792L270.893 344.629L277.51 346.513C276.554 349.502 275.694 352.629 274.932 355.4L274.923 355.433C274.438 357.196 273.98 358.861 273.541 360.342L273.398 360.834C273.296 361.19 273.171 361.624 273.025 362.092C272.716 363.371 272.179 364.583 271.44 365.67C270.973 366.155 270.301 366.384 269.635 366.285C268.79 366.236 268.013 365.808 267.519 365.121C267.084 364.361 267.001 363.125 267.277 361.554C267.324 361.317 267.366 361.12 267.395 360.984C268.192 357.371 269.075 353.204 270.01 348.792Z" fill="black"/>
<path d="M315.277 344.095C316.405 349.171 317.935 355.913 318.739 359.957C318.799 360.269 318.871 360.641 318.967 361.043C319.156 362.195 319.617 363.285 320.311 364.223C321.371 365.372 323.158 365.455 324.319 364.409C325.309 363.305 324.967 360.827 324.871 360.089C324.853 359.951 324.835 359.813 324.817 359.669C324.139 354.179 323.329 347.057 322.549 340.469L315.277 344.095Z" fill="white"/>
<path fill-rule="evenodd" clip-rule="evenodd" d="M322.424 365.439H322.43C323.218 365.46 323.98 365.159 324.542 364.607C325.609 363.418 325.281 360.909 325.169 360.048L325.115 359.63C324.679 356.099 324.197 351.966 323.686 347.589C323.408 345.2 323.126 342.782 322.847 340.431L322.797 340.008L314.934 343.928L315.682 347.283C316.674 351.725 317.798 356.76 318.449 360.032L318.449 360.032C318.509 360.344 318.581 360.713 318.674 361.106C318.862 362.311 319.348 363.451 320.088 364.421C320.685 365.08 321.536 365.451 322.424 365.439ZM316.267 347.152L315.621 344.256L322.302 340.925C322.549 343.016 322.798 345.156 323.046 347.276L323.09 347.658C323.601 352.036 324.083 356.171 324.52 359.704L324.579 360.162C324.844 362.193 324.681 363.553 324.097 364.205C323.65 364.633 323.048 364.862 322.43 364.839H322.425C321.706 364.849 321.017 364.551 320.533 364.019C319.864 363.123 319.427 362.076 319.259 360.971C319.169 360.597 319.102 360.249 319.041 359.933L319.033 359.896C318.385 356.636 317.26 351.598 316.267 347.152Z" fill="black"/>
<path d="M299.377 347.735C300.331 352.289 301.207 355.589 301.921 359.189C302.047 359.819 302.323 361.223 302.695 362.591C302.926 363.626 303.311 364.621 303.835 365.543C304.849 366.995 306.427 366.767 307.447 366.131C308.599 365.417 308.599 363.599 308.461 362.345C308.413 361.847 308.341 361.445 308.317 361.229C307.783 356.921 307.231 352.169 306.607 346.805L299.377 347.735Z" fill="white"/>
<path fill-rule="evenodd" clip-rule="evenodd" d="M303.59 365.715C304.078 366.471 304.917 366.927 305.817 366.926C306.452 366.915 307.071 366.728 307.606 366.386C308.602 365.77 308.99 364.398 308.761 362.317C308.729 361.99 308.687 361.704 308.655 361.483C308.638 361.367 308.624 361.27 308.615 361.192C308.095 356.992 307.566 352.441 306.952 347.17L306.952 347.164L306.871 346.469L299.018 347.479L299.084 347.797C299.541 349.979 299.974 351.845 300.392 353.649C300.836 355.565 301.256 357.375 301.627 359.248L301.643 359.323C301.773 359.979 302.046 361.344 302.406 362.67C302.638 363.741 303.038 364.768 303.59 365.715ZM300.977 353.514C300.58 351.801 300.169 350.032 299.738 347.992L306.345 347.141L306.356 347.234L306.365 347.314C306.975 352.554 307.502 357.084 308.019 361.262C308.028 361.34 308.043 361.441 308.06 361.561L308.061 361.57C308.093 361.783 308.132 362.059 308.163 362.378C308.303 363.641 308.264 365.273 307.289 365.877C306.371 366.449 304.981 366.66 304.08 365.37C303.573 364.478 303.204 363.515 302.985 362.513C302.63 361.206 302.36 359.855 302.231 359.206L302.216 359.131C301.842 357.249 301.422 355.435 300.977 353.514Z" fill="black"/>
<path d="M264.119 93.641C264.652 91.7874 266.553 89.8007 267.982 88.505C268.589 88.9324 269.4 88.9286 270.003 88.4956C270.511 87.9977 270.709 87.2637 270.521 86.578C270.301 85.8801 269.81 85.3003 269.157 84.9699C268.478 84.5906 267.642 84.6305 267.003 85.0728C266.111 85.7289 266.181 86.7391 266.932 87.5237C265.336 89.6613 262.496 90.6445 259.832 90.4978L262.226 92.7686L264.119 93.641Z" fill="white"/>
<path fill-rule="evenodd" clip-rule="evenodd" d="M263.993 93.9152C264.032 93.9333 264.075 93.9427 264.118 93.9428L264.118 93.9428C264.252 93.9431 264.369 93.8546 264.406 93.726C264.893 92.0326 266.606 90.1799 268.022 88.8756C268.716 89.2662 269.577 89.2037 270.207 88.7168C270.798 88.1443 271.029 87.295 270.81 86.502C270.567 85.7225 270.02 85.0741 269.292 84.7043C268.512 84.2753 267.556 84.325 266.824 84.8326C266.393 85.1241 266.112 85.5911 266.057 86.1088C266.029 86.6297 266.203 87.1413 266.543 87.5367C265.084 89.3332 262.538 90.3416 259.848 90.1998C259.722 90.1913 259.604 90.2639 259.556 90.3803C259.506 90.4958 259.534 90.6302 259.625 90.7166L262.018 92.9877C262.042 93.0106 262.069 93.0293 262.099 93.0428L263.993 93.9152ZM263.937 93.2291L262.395 92.5184L260.596 90.8116C263.145 90.8261 265.564 89.6835 267.172 87.7049C267.26 87.5876 267.25 87.424 267.148 87.3182C266.826 87.021 266.646 86.5997 266.654 86.161C266.697 85.8161 266.889 85.5073 267.179 85.316C267.728 84.9396 268.443 84.9096 269.02 85.2387C269.599 85.5293 270.035 86.041 270.23 86.6578C270.388 87.2362 270.223 87.8547 269.798 88.2774C269.296 88.6132 268.639 88.6046 268.146 88.2557C268.031 88.1809 267.881 88.1927 267.779 88.2844C266.365 89.567 264.594 91.4344 263.937 93.2291Z" fill="black"/>
<path d="M272.174 92.06C270.497 93.0039 268.958 94.1748 267.601 95.5396C266.601 96.7632 266.343 98.4331 266.928 99.9012C267.322 101.342 268.571 102.385 270.059 102.516C271.525 102.552 272.98 102.255 274.314 101.647C278.496 99.9012 280.527 101.58 281.074 103.694C281.744 106.284 280.392 108.606 278.168 108.971C275.583 109.395 274.818 108.206 272.174 106.946C270.075 105.945 267.319 106.066 266.916 108.143C264.2 127.95 267.328 201.896 267.496 220.742C267.559 227.786 267.638 234.944 269.682 241.685C272.285 250.272 277.682 257.234 283.882 263.777C293.783 273.756 312.412 281.405 321.426 292.191C327.695 299.691 330.137 305.099 331.358 314.694C333.105 328.419 328.218 340.513 312.78 345.28C300.123 349.188 288.438 347.899 277.099 346.096C269.119 344.827 262.923 340.397 257.913 334.058C250.881 325.161 250.635 309.62 251.695 301.129C253.531 286.42 254.451 276.69 256.288 261.981C258.517 247.809 258.363 233.383 258.145 219.039C257.884 201.837 260.04 130.696 257.598 112.206C256.921 108.067 256.24 107.606 251.654 105.722C250.843 105.351 250.402 104.462 250.599 103.593C250.703 103.219 250.856 101.768 249.394 101.645C249.023 101.621 248.656 101.742 248.372 101.982C248.091 102.303 247.913 102.7 247.861 103.123C247.704 103.905 245.735 102.043 245.156 101.505C242.345 98.892 240.322 95.331 241.715 91.5518C242.261 90.1191 243.223 88.8828 244.479 88.0025C247.85 85.5947 252.184 85.8822 255.75 87.512C258.08 88.6103 260.161 90.1739 261.864 92.1065C263.161 93.5044 265.224 93.8803 266.931 93.0298C268.317 92.3636 269.609 91.5174 270.774 90.513C270.693 90.3386 270.636 90.1541 270.603 89.9645C270.538 89.3163 270.832 88.684 271.37 88.3166C272.262 87.6261 273.534 87.7329 274.298 88.5624C274.755 88.9424 275.033 89.4963 275.064 90.0901C275.094 90.684 274.876 91.2637 274.46 91.6889C273.8 92.1688 272.952 92.3066 272.174 92.06Z" fill="white"/>
<path fill-rule="evenodd" clip-rule="evenodd" d="M277.051 346.392C283.026 347.451 289.076 348.033 295.143 348.133C301.147 348.178 307.124 347.313 312.868 345.566C326.966 341.213 333.638 330.236 331.655 314.656C330.44 305.106 328.01 299.601 321.656 291.998C316.758 286.138 308.982 281.161 301.462 276.348L301.453 276.342C295.145 272.305 288.623 268.13 284.098 263.571C278.666 257.837 272.74 250.742 269.968 241.597C267.92 234.843 267.856 227.673 267.795 220.739C267.753 216.071 267.535 208.212 267.259 198.263L267.258 198.228L267.258 198.215C266.427 168.281 265.173 123.054 267.21 108.199C267.304 107.646 267.661 107.174 268.167 106.933C269.122 106.453 270.679 106.566 272.045 107.216C272.759 107.557 273.339 107.896 273.852 108.195L273.866 108.203C275.245 109.009 276.243 109.592 278.216 109.266C279.289 109.092 280.236 108.469 280.822 107.553C281.544 106.375 281.74 104.948 281.363 103.619C281.111 102.509 280.384 101.566 279.375 101.039C278.046 100.378 276.303 100.489 274.198 101.37C272.908 101.96 271.5 102.249 270.082 102.216C268.714 102.095 267.567 101.132 267.212 99.8059C266.66 98.4427 266.892 96.8873 267.818 95.7448C269.125 94.4343 270.6 93.3031 272.205 92.3809C273.055 92.6146 273.966 92.4382 274.667 91.904C275.11 91.4782 275.362 90.8912 275.364 90.2768C275.357 89.5438 275.047 88.8464 274.508 88.3497C273.641 87.4075 272.196 87.2889 271.187 88.0772C270.562 88.5101 270.224 89.2501 270.305 90.0061C270.327 90.1495 270.364 90.2903 270.415 90.4262C269.311 91.3505 268.096 92.1342 266.799 92.7594C265.211 93.5448 263.296 93.1975 262.085 91.9045C260.354 89.9427 258.241 88.355 255.874 87.2387C251.734 85.3461 247.408 85.5401 244.303 87.7579C242.996 88.6706 241.996 89.9566 241.433 91.4475C239.759 95.9879 242.919 99.8352 244.951 101.724L245.009 101.779C246.586 103.246 247.345 103.735 247.814 103.586C247.994 103.527 248.126 103.372 248.154 103.184C248.193 102.825 248.337 102.486 248.568 102.209C248.792 102.023 249.077 101.928 249.368 101.943C249.68 101.944 249.974 102.089 250.164 102.336C250.365 102.705 250.414 103.138 250.302 103.543C250.077 104.552 250.595 105.579 251.539 105.999C256.044 107.85 256.645 108.241 257.3 112.245C259.004 125.141 258.467 163.609 258.075 191.706L258.075 191.727C257.909 203.602 257.766 213.858 257.844 219.044C258.047 232.338 258.276 247.406 255.989 261.944C255.073 269.281 254.373 275.482 253.697 281.477L253.69 281.536C253.013 287.539 252.313 293.745 251.396 301.092C250.142 311.134 251.035 325.841 257.677 334.244C263.192 341.222 269.529 345.195 277.051 346.392ZM249.419 101.346C249.377 101.342 249.335 101.34 249.293 101.34V101.34C248.883 101.344 248.487 101.491 248.174 101.755C247.848 102.098 247.639 102.536 247.578 103.005C247.388 102.961 246.858 102.68 245.418 101.339L245.36 101.285C243.437 99.4972 240.443 95.8696 241.995 91.655C242.517 90.2772 243.443 89.0892 244.652 88.2466C247.578 86.1548 251.682 85.9819 255.625 87.7849C257.917 88.867 259.965 90.4061 261.641 92.3077C263.032 93.797 265.233 94.1999 267.061 93.2997C268.472 92.621 269.786 91.7595 270.972 90.7374L271.136 90.5921L271.048 90.3917C270.978 90.2423 270.928 90.0843 270.9 89.9218C270.851 89.3816 271.1 88.8577 271.551 88.5554C272.323 87.9572 273.426 88.0523 274.084 88.7739C274.506 89.1597 274.752 89.7009 274.765 90.2722C274.763 90.7255 274.577 91.1587 274.25 91.4728C273.67 91.8717 272.938 91.9827 272.266 91.7739L272.148 91.7359L272.038 91.7915C270.328 92.7494 268.761 93.9416 267.381 95.3335C266.302 96.6369 266.019 98.4247 266.643 99.9976C267.071 101.555 268.425 102.679 270.034 102.814C271.547 102.856 273.051 102.551 274.429 101.923C276.342 101.125 277.959 101.005 279.109 101.577C279.962 102.026 280.574 102.827 280.782 103.769C281.117 104.935 280.949 106.189 280.319 107.226C279.825 108 279.025 108.527 278.118 108.675C276.357 108.963 275.534 108.482 274.17 107.686L274.169 107.685L274.165 107.683C273.64 107.376 273.045 107.029 272.302 106.675C270.756 105.937 269.026 105.828 267.897 106.397C267.221 106.726 266.745 107.36 266.618 108.101C264.572 123.024 265.827 168.291 266.659 198.245L266.664 198.437C266.937 208.308 267.153 216.106 267.195 220.745C267.257 227.721 267.321 234.934 269.394 241.772C272.202 251.036 278.183 258.199 283.668 263.989C288.246 268.602 294.799 272.796 301.138 276.853L301.143 276.856C308.624 281.644 316.358 286.595 321.195 292.382C327.464 299.883 329.861 305.314 331.06 314.732C333.001 329.989 326.478 340.736 312.691 344.993C299.95 348.926 288.144 347.548 277.145 345.799C269.779 344.628 263.565 340.726 258.148 333.872C254.069 328.711 250.009 317.049 251.991 301.166C252.907 293.829 253.607 287.63 254.283 281.635L254.287 281.604C254.964 275.592 255.666 269.376 256.583 262.027C258.876 247.452 258.647 232.36 258.445 219.043L258.444 219.034C258.366 213.858 258.509 203.606 258.675 191.735L258.675 191.715C259.067 163.599 259.604 125.106 257.894 112.157C257.203 107.937 256.48 107.38 251.767 105.444C251.093 105.135 250.726 104.397 250.887 103.673C251.04 103.105 250.957 102.499 250.657 101.993C250.367 101.597 249.909 101.358 249.419 101.346Z" fill="black"/>
<path d="M241.263 94.6603C243.261 95.7008 245.714 95.2047 247.151 93.4697C248.687 91.5283 248.466 88.7305 246.644 87.0547C246.644 87.0547 244.144 87.8599 242.938 89.4312C241.824 90.9448 241.236 92.7811 241.263 94.6603V94.6603Z" fill="black"/>
<path d="M245.648 89.7115C245.413 89.764 245.198 89.8817 245.027 90.0512C244.748 90.319 245.172 90.7429 245.451 90.4755C245.549 90.3794 245.673 90.3148 245.808 90.2901C246.185 90.2056 246.025 89.627 245.648 89.7115H245.648Z" fill="white"/>
<ellipse cx="257.156" cy="93.7852" rx="0.949265" ry="0.949261" fill="black"/>
<path d="M323.784 295.178C334.458 295.675 343.735 302.67 347.149 312.796C347.268 313.162 347.847 313.005 347.728 312.637C344.236 302.254 334.726 295.082 323.784 294.578C323.397 294.565 323.398 295.165 323.784 295.178V295.178Z" fill="black"/>
<path d="M347.305 312.328C346.009 315.347 346.504 318.837 348.589 321.376C349.51 322.465 351.305 323.284 352.254 322.219C352.789 321.618 352.742 320.708 352.595 319.917C351.962 316.499 350.074 314.429 347.305 312.328" fill="black"/>
<path d="M265.942 128.158C267.112 127.823 268.365 128.262 269.07 129.253C269.67 130.215 269.468 131.472 268.598 132.197C267.785 132.704 266.787 132.816 265.883 132.501" fill="black"/>
<path d="M265.883 136.83C267.646 136.082 269.272 137.52 268.994 138.93C268.716 140.341 267.199 140.592 265.883 140.13" fill="black"/>
<path d="M265.986 144.629C267.582 144.178 269.655 145.323 269.655 147.31C269.655 149.158 267.891 150.023 265.906 149.751" fill="black"/>
<path d="M266.053 152.892C268.227 152.544 270.075 153.853 269.871 156.059C269.709 157.821 268.111 158.569 266.204 158.351" fill="black"/>
<path d="M266.215 161.354C268.86 160.705 271.105 163.487 269.323 165.516C268.568 166.153 267.034 166.307 266.215 166.268" fill="black"/>
<path d="M266.32 169.707C267.481 169.512 268.675 169.666 269.747 170.152C270.643 170.757 271.123 171.815 270.987 172.888C270.782 174.642 267.806 175.277 266.32 174.851" fill="black"/>
<path d="M266.652 178.582C267.566 178.497 269.374 178.347 270.349 179.221C271.472 180.181 271.684 181.837 270.839 183.049C270.009 184.121 267.997 184.648 266.652 184.331" fill="black"/>
<path d="M266.908 187.386C267.964 187.183 269.057 187.3 270.046 187.722C271.358 188.462 271.358 189.613 270.82 190.68C270.296 191.719 268.067 192.03 266.908 191.923" fill="black"/>
<path d="M266.908 195.853C267.862 195.853 269.372 195.607 270.416 196.324C271.506 197.175 271.78 198.71 271.052 199.886C270.282 201.028 268.366 201.098 267.305 201.007" fill="black"/>
<path d="M267.121 204.125C269.61 203.653 271.257 204.325 271.256 206.771C271.256 208.56 268.501 208.526 267.306 208.46" fill="black"/>
<path d="M278.791 289.11C277.76 288.756 277.166 286.79 276.842 285.906C276.4 284.704 275.963 283.505 276.521 282.253C277.322 280.632 278.288 279.098 279.403 277.675C281.213 275.201 282.345 278.199 282.931 279.637C283.441 280.879 283.864 282.154 284.197 283.454C284.397 284.239 284.957 285.798 284.503 286.571C284.09 287.277 282.66 287.77 281.964 288.093C281.052 288.515 279.763 289.215 278.711 289.099C278.328 289.057 278.331 289.657 278.711 289.699C279.642 289.802 280.668 289.3 281.501 288.95C282.641 288.555 283.71 287.979 284.666 287.243C286.018 286.012 284.723 282.955 284.27 281.562C283.819 280.175 282.689 275.651 280.7 275.817C279.291 275.934 278.145 278.408 277.514 279.399C276.708 280.665 275.547 282.122 275.629 283.713C275.779 284.883 276.13 286.018 276.664 287.069C277.063 287.986 277.595 289.332 278.631 289.688C278.997 289.814 279.154 289.235 278.791 289.11Z" fill="black"/>
<path d="M293.457 286.256C293.029 288.386 292.191 290.794 292.228 292.973C292.25 294.289 293.09 295.264 294.151 295.97C297.107 297.935 299.574 295.591 300.267 292.649C300.745 290.615 301.783 287.424 299.396 286.274C298.101 285.709 296.723 285.356 295.316 285.227C294.379 285.125 293.801 285.334 293.457 286.256C293.322 286.619 293.902 286.775 294.036 286.416C294.537 285.071 298.104 286.36 299.003 286.759C301.046 287.668 300.121 290.587 299.732 292.299C299.426 293.65 298.952 295.144 297.621 295.824C296.184 296.56 294.604 295.811 293.594 294.73C292.412 293.466 292.95 291.897 293.251 290.368C293.511 289.051 293.773 287.733 294.036 286.416C294.112 286.039 293.533 285.877 293.457 286.256Z" fill="black"/>
<path d="M260.925 305.309C261.961 307.204 262.875 309.614 264.308 311.236C265.18 312.222 266.455 312.417 267.72 312.267C271.016 311.878 271.637 308.754 270.392 306.109C269.564 304.351 268.176 300.927 265.719 301.405C264.446 301.756 263.234 302.303 262.128 303.027C261.182 303.569 260.532 304.07 260.895 305.238C261.01 305.605 261.589 305.448 261.474 305.078C261.024 303.632 264.87 302.144 265.879 301.983C267.74 301.686 268.917 304.541 269.617 305.9C270.185 307.004 270.716 308.255 270.393 309.526C269.979 311.159 268.351 311.769 266.835 311.71C265.1 311.643 264.423 310.421 263.663 309.042C262.922 307.697 262.182 306.352 261.444 305.006C261.258 304.667 260.74 304.97 260.925 305.309Z" fill="black"/>
<path d="M317.858 293.772C315.925 292.792 313.825 291.331 311.718 290.791C310.477 290.543 309.196 290.94 308.313 291.846C305.741 294.089 307.11 297.075 309.711 298.532C311.557 299.567 314.479 301.518 316.257 299.488C317.146 298.391 317.855 297.159 318.357 295.838C318.706 294.961 318.654 294.35 317.858 293.772C317.545 293.545 317.245 294.065 317.555 294.29C318.706 295.125 316.507 298.254 315.891 298.985C314.435 300.713 311.744 298.964 310.185 298.108C309.037 297.477 307.966 296.704 307.62 295.382C307.203 293.792 308.152 292.506 309.493 291.735C311.028 290.853 312.276 291.632 313.7 292.347C314.986 292.993 316.271 293.641 317.555 294.29C317.899 294.465 318.203 293.947 317.858 293.772Z" fill="black"/>
<path d="M266.66 267.08C268.782 266.691 271.364 266.581 273.348 265.721C274.648 265.158 275.248 263.833 275.439 262.484C275.897 259.241 272.937 257.981 270.173 258.374C268.118 258.667 264.624 258.877 264.426 261.534C264.401 262.884 264.566 264.23 264.918 265.534C265.139 266.495 265.512 267.115 266.581 267.091C266.742 267.085 266.87 266.952 266.87 266.791C266.87 266.629 266.742 266.496 266.581 266.491C265.082 266.525 264.911 262.6 265.026 261.534C265.242 259.541 268.147 259.308 269.745 259.045C271.035 258.834 272.465 258.675 273.631 259.425C275.048 260.338 275.107 262.07 274.57 263.494C273.941 265.159 272.581 265.368 271.029 265.659C269.52 265.941 268.01 266.222 266.501 266.501C266.122 266.571 266.282 267.149 266.66 267.08Z" fill="black"/>
<path d="M320.199 316.757C321.067 315.104 322.356 313.316 322.838 311.507C323.065 310.469 322.76 309.386 322.026 308.618C320.098 306.24 317.426 307.413 316.1 309.719C315.167 311.341 313.502 313.807 315.293 315.366C316.346 316.281 319.022 318.331 320.199 316.757C320.43 316.447 319.909 316.148 319.681 316.454C318.991 317.377 316.403 315.521 315.8 315.003C314.304 313.718 315.774 311.519 316.526 310.186C316.923 309.309 317.586 308.579 318.42 308.098C319.969 307.387 321.449 308.455 322.103 309.83C322.72 311.128 321.795 312.401 321.207 313.531C320.7 314.506 320.191 315.48 319.681 316.454C319.501 316.796 320.019 317.099 320.199 316.757Z" fill="black"/>
<path d="M297.098 310.635C296.429 308.922 297.764 307.931 299.087 307.169C300.18 306.54 301.376 305.738 302.635 305.511C306.214 304.863 306.178 310.136 306.136 312.385C306.133 313.718 305.988 315.046 305.704 316.347C305.536 317.059 305.318 317.96 304.635 318.369C303.406 319.102 302.186 317.738 301.469 317C299.675 315.098 298.189 312.926 297.068 310.563C296.896 310.217 296.379 310.521 296.55 310.866C297.42 312.697 298.5 314.42 299.769 316.001C300.725 317.154 301.985 318.881 303.582 319.133C307.123 319.691 306.769 312.805 306.731 310.842C306.68 308.214 305.798 304.149 302.29 304.976C300.56 305.46 298.95 306.303 297.568 307.451C296.484 308.344 295.992 309.443 296.52 310.794C296.659 311.15 297.239 310.995 297.098 310.635Z" fill="black"/>
<path d="M289.434 336.669C289.418 339.346 285.03 339.457 283.092 339.355C279.138 339.145 280.46 334.71 281.42 332.343C281.901 331.115 282.487 329.93 283.172 328.803C283.486 328.164 283.922 327.594 284.456 327.123C286.07 326.037 286.875 327.055 287.469 328.265C288.655 330.915 289.322 333.768 289.434 336.669C289.461 337.052 290.061 337.055 290.034 336.669C289.92 334.526 289.542 332.406 288.909 330.355C288.452 328.955 287.852 326.659 286.259 326.112C283.224 325.069 281.22 331.137 280.481 333.103C279.445 335.859 279.249 339.786 283.092 339.955C285.42 340.057 290.014 339.866 290.034 336.669C290.028 336.508 289.896 336.38 289.734 336.38C289.572 336.38 289.439 336.508 289.434 336.669V336.669Z" fill="black"/>
<path d="M297.5 327.579C297.223 330.726 296.512 334.46 298.884 336.988C299.958 338.133 301.805 339.697 303.38 339.963C304.857 340.213 305.151 338.77 305.45 337.65C306.304 334.45 306.996 330.428 304 328.178C302.601 327.128 298.016 324.186 297.511 327.499C297.453 327.877 298.031 328.04 298.089 327.659C298.498 324.982 303.298 328.237 304.285 329.189C306.452 331.282 305.515 335.153 304.813 337.706C304.771 338.04 304.677 338.365 304.533 338.669C303.999 339.261 303.11 339.369 302.451 338.921C301.88 338.595 301.331 338.233 300.807 337.837C299.479 336.866 298.355 335.764 297.99 334.098C297.529 331.996 297.914 329.695 298.1 327.579C298.134 327.194 297.534 327.197 297.5 327.579Z" fill="black"/>
<path d="M314.59 326.363C314.219 329.066 313.818 332.166 316.059 334.131C316.946 334.909 318.655 336.104 319.941 335.818C321.217 335.535 321.753 333.637 322.083 332.604C322.882 330.1 324.231 325.483 320.711 324.512C319.325 324.141 317.878 324.059 316.458 324.271C315.227 324.471 314.783 325.154 314.59 326.363C314.529 326.741 315.107 326.903 315.168 326.522C315.383 325.181 316.075 324.85 317.336 324.801C318.364 324.745 319.394 324.829 320.399 325.051C323.532 325.811 322.252 329.974 321.587 332.185C321.089 333.838 320.33 335.8 318.224 334.831C317.103 334.354 316.143 333.566 315.457 332.559C314.497 330.988 314.93 328.263 315.168 326.522C315.22 326.145 314.642 325.981 314.59 326.363Z" fill="black"/>
<path d="M261.702 330.434C261.693 328.811 261.817 327.189 262.075 325.586C262.181 324.941 262.313 324.3 262.456 323.663C262.639 322.85 262.664 322.042 263.425 321.648C264.508 321.088 266.423 321.577 267.529 321.979C269.147 322.567 269.818 323.794 270.422 325.303C270.861 326.401 271.29 327.514 271.619 328.651C271.792 329.242 271.93 329.842 272.032 330.449C272.153 331.178 272.193 332.129 271.441 332.612C271.172 332.786 270.395 332.671 270.055 332.677C268.681 332.717 267.307 332.625 265.951 332.402C264.815 332.199 262.02 331.698 261.691 330.355C261.599 329.98 261.02 330.139 261.112 330.514C261.451 331.895 263.359 332.366 264.555 332.698C266.528 333.188 268.563 333.38 270.592 333.268C272.08 333.226 272.855 332.684 272.734 331.118C272.583 329.168 271.827 327.263 271.124 325.461C270.606 324.132 270.101 322.776 268.857 321.964C267.354 321.108 265.631 320.715 263.905 320.833C262.242 320.924 262.126 322.358 261.823 323.744C261.342 325.942 261.1 328.185 261.102 330.435C261.107 330.596 261.24 330.725 261.402 330.725C261.564 330.725 261.696 330.596 261.702 330.434Z" fill="black"/>
<path d="M258.785 282.995C258.956 284.824 259.159 286.925 260.019 288.583C260.532 289.571 261.352 289.784 262.425 289.699C264.087 289.568 267.503 288.916 267.543 286.785C267.481 284.135 266.626 281.566 265.087 279.408C264.48 278.642 263.915 278.647 263.087 279.142C262.027 279.856 261.003 280.624 260.022 281.443C259.371 281.931 258.83 282.159 258.785 282.995C258.764 283.381 259.364 283.38 259.385 282.995C259.423 282.291 260.925 281.51 261.419 281.139C262.035 280.593 262.694 280.098 263.39 279.66C264.495 279.099 264.793 279.95 265.238 280.837C266.165 282.578 266.739 284.484 266.929 286.446C267.07 287.112 266.693 287.778 266.05 287.999C265.091 288.493 264.061 288.838 262.998 289.02C262.405 289.179 261.779 289.171 261.19 288.996C260.696 288.653 260.357 288.13 260.246 287.538C259.781 286.063 259.492 284.538 259.385 282.995C259.349 282.614 258.749 282.611 258.785 282.995Z" fill="black"/>
<path d="M277.433 308.102C277.569 309.99 277.911 311.857 278.455 313.671C278.739 314.552 279.081 315.648 279.99 316.057C281.988 316.954 285.453 315.615 287.144 314.498C288.628 313.517 287.937 311.302 287.574 309.871C287.061 307.845 286.316 304.99 284.785 303.452C283.71 302.372 282.524 303.55 281.571 304.265C280.474 305.088 279.377 305.912 278.281 306.735C277.728 307.151 277.43 307.387 277.433 308.102C277.439 308.264 277.571 308.392 277.733 308.392C277.895 308.392 278.028 308.264 278.033 308.102C278.029 307.187 280.134 306.089 280.777 305.606C281.586 304.999 282.514 304.033 283.508 303.784C284.246 303.599 284.299 303.735 284.72 304.349C284.996 304.773 285.24 305.217 285.448 305.677C286.422 307.716 287.358 310.219 287.416 312.506C287.442 313.541 287.096 313.884 286.192 314.337C284.966 314.954 283.651 315.375 282.295 315.585C281.613 315.75 280.899 315.72 280.233 315.498C279.575 315.177 279.316 314.346 279.092 313.697C278.519 311.881 278.163 310.002 278.033 308.102C277.998 307.721 277.398 307.717 277.433 308.102Z" fill="black"/>
<path d="M251.239 358.133C253.159 358.831 255.123 359.4 257.119 359.837C256.848 360.918 256.411 361.95 255.823 362.897C255.247 363.575 254.391 363.95 253.502 363.912C252.613 363.875 251.791 363.429 251.275 362.705C250.573 361.589 250.957 359.399 251.239 358.133Z" fill="black"/>
<path d="M273.181 362.604C272.896 363.78 272.383 364.888 271.67 365.865C270.524 367.215 267.968 366.519 267.26 365.271C266.624 364.161 266.869 362.193 267.044 361.203C269.063 361.78 271.112 362.247 273.181 362.604Z" fill="black"/>
<path d="M308.409 361.898C308.659 363.39 308.599 365.42 307.447 366.134C306.427 366.77 304.849 366.998 303.835 365.546C303.311 364.624 302.927 363.629 302.695 362.594C303.95 362.507 306.61 362.082 308.409 361.898Z" fill="black"/>
<path d="M324.32 364.408C323.149 365.43 321.382 365.348 320.312 364.222C319.61 363.448 319.162 361.923 318.916 360.819C320.914 360.648 322.898 360.335 324.852 359.883C324.87 360.027 325.499 363.247 324.32 364.408Z" fill="black"/>
</svg>
